{"glyphs":{"0":{"ha":796,"x_min":0,"x_max":0,"o":"m 405 -13 b 70 479 115 -13 70 275 b 395 972 70 685 112 972 b 730 477 653 972 730 718 b 405 -13 730 239 656 -13 m 401 125 b 579 480 558 125 579 315 b 395 832 579 649 557 832 b 213 479 231 832 213 643 b 401 125 213 317 231 125 "},"1":{"ha":796,"x_min":0,"x_max":0,"o":"m 534 958 l 534 0 l 391 0 l 391 696 l 161 696 l 161 807 l 300 807 b 396 892 362 807 396 832 l 396 958 "},"2":{"ha":796,"x_min":0,"x_max":0,"o":"m 741 132 l 741 0 l 61 0 l 61 119 b 546 682 250 234 546 441 b 391 839 546 771 496 839 b 208 618 259 839 212 732 l 66 628 b 390 970 66 808 184 970 b 692 678 565 970 692 865 b 295 132 692 453 460 229 "},"3":{"ha":796,"x_min":0,"x_max":0,"o":"m 390 -13 b 41 297 199 -13 41 92 l 180 305 b 393 121 180 189 269 121 b 600 290 505 121 600 179 b 346 446 600 436 460 446 l 346 559 b 547 696 500 559 547 605 b 389 836 547 787 479 836 b 224 684 292 836 226 778 l 87 693 b 387 971 87 868 223 971 b 687 714 546 971 687 874 b 541 512 687 624 639 551 b 739 279 670 481 739 395 b 390 -13 739 90 577 -13 "},"4":{"ha":796,"x_min":0,"x_max":0,"o":"m 772 359 l 772 226 l 618 226 l 618 0 l 475 0 l 475 226 l 19 226 l 19 313 l 494 958 l 618 958 l 618 359 m 475 359 l 475 738 l 205 359 "},"5":{"ha":796,"x_min":0,"x_max":0,"o":"m 416 652 b 737 324 594 652 737 505 b 393 -13 737 142 581 -13 b 54 273 224 -13 89 113 l 189 311 b 393 119 210 213 271 119 b 589 326 507 119 589 219 b 395 522 589 433 516 522 b 216 423 327 522 257 485 l 82 458 l 174 958 l 693 958 l 693 824 l 289 824 l 248 602 b 416 652 305 638 360 652 "},"6":{"ha":796,"x_min":0,"x_max":0,"o":"m 504 626 b 740 316 637 587 740 464 b 399 -13 740 135 587 -13 b 58 315 211 -13 58 135 b 110 490 58 380 79 439 l 397 958 l 563 958 l 363 637 b 504 626 410 644 458 640 m 399 123 b 597 317 509 123 597 210 b 399 510 597 422 509 510 b 200 316 289 510 200 422 b 399 123 200 210 289 123 "},"7":{"ha":796,"x_min":0,"x_max":0,"o":"m 743 958 l 743 881 l 304 0 l 142 0 l 568 825 l 54 825 l 54 958 "},"8":{"ha":796,"x_min":0,"x_max":0,"o":"m 397 -13 b 54 273 220 -13 54 82 b 207 519 54 386 114 473 b 104 717 141 565 104 635 b 397 971 104 880 248 971 b 690 716 552 971 690 876 b 587 519 690 633 650 562 b 740 274 685 471 740 383 b 397 -13 740 81 572 -13 m 400 561 b 551 705 488 561 551 615 b 399 850 551 795 487 850 b 248 709 319 850 248 803 b 400 561 248 620 308 561 m 396 113 b 595 288 504 113 595 169 b 396 465 595 399 511 465 b 196 289 279 465 196 399 b 396 113 196 169 290 113 "},"9":{"ha":796,"x_min":0,"x_max":0,"o":"m 400 971 b 742 644 589 971 742 823 b 690 468 742 578 721 519 l 403 0 l 237 0 l 437 321 b 296 332 389 315 341 318 b 60 642 162 372 60 494 b 400 971 60 823 212 971 m 400 448 b 600 642 511 448 600 536 b 400 836 600 748 511 836 b 202 642 290 836 202 748 b 400 448 202 536 290 448 "},"A":{"ha":901,"x_min":0,"x_max":0,"o":"m 395 958 l 507 958 l 880 0 l 723 0 l 645 216 l 260 216 l 180 0 l 21 0 m 599 341 l 452 746 l 305 341 "},"Á":{"ha":901,"x_min":0,"x_max":0,"o":"m 533 1238 l 683 1238 l 486 1042 l 382 1042 m 395 958 l 507 958 l 880 0 l 723 0 l 645 216 l 260 216 l 180 0 l 21 0 m 599 341 l 452 746 l 305 341 "},"Ă":{"ha":901,"x_min":0,"x_max":0,"o":"m 450 1055 b 239 1238 305 1055 239 1120 l 338 1238 b 450 1139 338 1171 385 1139 b 562 1238 518 1139 562 1173 l 662 1238 b 450 1055 662 1116 590 1055 m 395 958 l 507 958 l 880 0 l 723 0 l 645 216 l 260 216 l 180 0 l 21 0 m 599 341 l 452 746 l 305 341 "},"Ắ":{"ha":901,"x_min":0,"x_max":0,"o":"m 533 1518 l 683 1518 l 486 1323 l 382 1323 m 450 1055 b 239 1238 305 1055 239 1120 l 338 1238 b 450 1139 338 1171 385 1139 b 562 1238 518 1139 562 1173 l 662 1238 b 450 1055 662 1116 590 1055 m 395 958 l 507 958 l 880 0 l 723 0 l 645 216 l 260 216 l 180 0 l 21 0 m 599 341 l 452 746 l 305 341 "},"Ằ":{"ha":901,"x_min":0,"x_max":0,"o":"m 211 1518 l 361 1518 l 504 1323 l 397 1323 m 450 1055 b 239 1238 305 1055 239 1120 l 338 1238 b 450 1139 338 1171 385 1139 b 562 1238 518 1139 562 1173 l 662 1238 b 450 1055 662 1116 590 1055 m 395 958 l 507 958 l 880 0 l 723 0 l 645 216 l 260 216 l 180 0 l 21 0 m 599 341 l 452 746 l 305 341 "},"Ẵ":{"ha":901,"x_min":0,"x_max":0,"o":"m 540 1320 b 359 1425 431 1320 418 1425 b 307 1326 326 1425 307 1389 l 225 1326 b 363 1512 225 1445 279 1512 b 541 1408 463 1512 484 1408 b 590 1507 569 1408 590 1444 l 675 1507 b 540 1320 675 1388 623 1320 m 450 1055 b 239 1238 305 1055 239 1120 l 338 1238 b 450 1139 338 1171 385 1139 b 562 1238 518 1139 562 1173 l 662 1238 b 450 1055 662 1116 590 1055 m 395 958 l 507 958 l 880 0 l 723 0 l 645 216 l 260 216 l 180 0 l 21 0 m 599 341 l 452 746 l 305 341 "},"Ǎ":{"ha":901,"x_min":0,"x_max":0,"o":"m 239 1238 l 349 1238 l 450 1133 l 551 1238 l 661 1238 l 450 1018 m 395 958 l 507 958 l 880 0 l 723 0 l 645 216 l 260 216 l 180 0 l 21 0 m 599 341 l 452 746 l 305 341 "},"Â":{"ha":901,"x_min":0,"x_max":0,"o":"m 449 1259 l 661 1027 l 551 1027 l 449 1139 l 349 1027 l 238 1027 m 395 958 l 507 958 l 880 0 l 723 0 l 645 216 l 260 216 l 180 0 l 21 0 m 599 341 l 452 746 l 305 341 "},"Ấ":{"ha":901,"x_min":0,"x_max":0,"o":"m 533 1517 l 683 1517 l 486 1322 l 382 1322 m 449 1259 l 661 1027 l 551 1027 l 449 1139 l 349 1027 l 238 1027 m 395 958 l 507 958 l 880 0 l 723 0 l 645 216 l 260 216 l 180 0 l 21 0 m 599 341 l 452 746 l 305 341 "},"Ầ":{"ha":901,"x_min":0,"x_max":0,"o":"m 211 1517 l 361 1517 l 504 1322 l 397 1322 m 449 1259 l 661 1027 l 551 1027 l 449 1139 l 349 1027 l 238 1027 m 395 958 l 507 958 l 880 0 l 723 0 l 645 216 l 260 216 l 180 0 l 21 0 m 599 341 l 452 746 l 305 341 "},"Ẫ":{"ha":901,"x_min":0,"x_max":0,"o":"m 540 1318 b 359 1423 431 1318 418 1423 b 307 1325 326 1423 307 1388 l 225 1325 b 363 1510 225 1444 279 1510 b 541 1407 463 1510 484 1407 b 590 1506 569 1407 590 1442 l 675 1506 b 540 1318 675 1387 623 1318 m 449 1259 l 661 1027 l 551 1027 l 449 1139 l 349 1027 l 238 1027 m 395 958 l 507 958 l 880 0 l 723 0 l 645 216 l 260 216 l 180 0 l 21 0 m 599 341 l 452 746 l 305 341 "},"Ä":{"ha":901,"x_min":0,"x_max":0,"o":"m 260 1238 l 378 1238 l 378 1090 l 260 1090 m 521 1238 l 639 1238 l 639 1090 l 521 1090 m 395 958 l 507 958 l 880 0 l 723 0 l 645 216 l 260 216 l 180 0 l 21 0 m 599 341 l 452 746 l 305 341 "},"À":{"ha":901,"x_min":0,"x_max":0,"o":"m 211 1238 l 361 1238 l 504 1042 l 397 1042 m 395 958 l 507 958 l 880 0 l 723 0 l 645 216 l 260 216 l 180 0 l 21 0 m 599 341 l 452 746 l 305 341 "},"Ā":{"ha":901,"x_min":0,"x_max":0,"o":"m 262 1157 l 639 1157 l 639 1074 l 262 1074 m 395 958 l 507 958 l 880 0 l 723 0 l 645 216 l 260 216 l 180 0 l 21 0 m 599 341 l 452 746 l 305 341 "},"Ą":{"ha":901,"x_min":0,"x_max":0,"o":"m 940 -224 b 792 -307 907 -274 861 -307 b 644 -172 706 -307 644 -253 b 768 0 644 -68 743 -8 l 723 0 l 645 216 l 260 216 l 180 0 l 21 0 l 395 958 l 507 958 l 880 0 b 728 -153 846 -9 728 -66 b 789 -220 728 -204 755 -220 b 869 -176 823 -220 848 -205 m 599 341 l 452 746 l 305 341 "},"Å":{"ha":901,"x_min":0,"x_max":0,"o":"m 449 1010 b 301 1159 366 1010 301 1078 b 449 1306 301 1240 367 1306 b 597 1159 529 1306 597 1242 b 449 1010 597 1076 532 1010 m 449 1086 b 521 1160 491 1086 521 1118 b 449 1230 521 1200 493 1230 b 378 1160 407 1230 378 1200 b 449 1086 378 1118 409 1086 m 395 958 l 507 958 l 880 0 l 723 0 l 645 216 l 260 216 l 180 0 l 21 0 m 599 341 l 452 746 l 305 341 "},"Ã":{"ha":901,"x_min":0,"x_max":0,"o":"m 540 1039 b 359 1144 431 1039 418 1144 b 307 1046 326 1144 307 1108 l 225 1046 b 363 1231 225 1164 279 1231 b 541 1127 463 1231 484 1127 b 590 1226 569 1127 590 1163 l 675 1226 b 540 1039 675 1107 623 1039 m 395 958 l 507 958 l 880 0 l 723 0 l 645 216 l 260 216 l 180 0 l 21 0 m 599 341 l 452 746 l 305 341 "},"Æ":{"ha":1333,"x_min":0,"x_max":0,"o":"m 392 958 l 1249 958 l 1249 830 l 757 830 l 757 541 l 1187 541 l 1187 418 l 757 418 l 757 132 l 1249 132 l 1249 0 l 611 0 l 611 216 l 257 216 l 180 0 l 21 0 m 611 330 l 611 836 l 483 836 l 303 330 "},"B":{"ha":863,"x_min":0,"x_max":0,"o":"m 133 958 l 451 958 b 751 704 602 958 751 889 b 637 511 751 613 697 540 b 798 273 730 479 798 377 b 488 0 798 98 656 0 l 133 0 m 472 561 b 617 696 548 561 617 596 b 454 827 617 783 550 827 l 279 827 l 279 561 m 490 139 b 655 290 596 139 655 189 b 494 435 655 372 593 435 l 279 435 l 279 139 "},"C":{"ha":976,"x_min":0,"x_max":0,"o":"m 521 -13 b 67 479 216 -13 67 210 b 522 972 67 749 214 972 b 932 703 712 972 857 879 l 795 648 b 521 833 755 781 655 833 b 212 486 309 833 212 684 b 521 126 212 282 304 126 b 798 314 654 126 743 180 l 933 258 b 521 -13 857 82 710 -13 "},"Ć":{"ha":976,"x_min":0,"x_max":0,"o":"m 570 1238 l 720 1238 l 523 1042 l 419 1042 m 521 -13 b 67 479 216 -13 67 210 b 522 972 67 749 214 972 b 932 703 712 972 857 879 l 795 648 b 521 833 755 781 655 833 b 212 486 309 833 212 684 b 521 126 212 282 304 126 b 798 314 654 126 743 180 l 933 258 b 521 -13 857 82 710 -13 "},"Č":{"ha":976,"x_min":0,"x_max":0,"o":"m 276 1238 l 386 1238 l 487 1133 l 588 1238 l 699 1238 l 487 1018 m 521 -13 b 67 479 216 -13 67 210 b 522 972 67 749 214 972 b 932 703 712 972 857 879 l 795 648 b 521 833 755 781 655 833 b 212 486 309 833 212 684 b 521 126 212 282 304 126 b 798 314 654 126 743 180 l 933 258 b 521 -13 857 82 710 -13 "},"Ç":{"ha":976,"x_min":0,"x_max":0,"o":"m 933 258 b 571 -11 864 98 736 5 l 526 -75 b 565 -83 540 -77 553 -79 b 665 -206 631 -101 665 -144 b 515 -353 665 -290 602 -353 b 382 -265 458 -353 404 -317 l 461 -232 b 518 -272 469 -255 492 -272 b 582 -211 557 -272 582 -248 b 465 -132 582 -165 536 -134 b 414 -131 451 -132 435 -131 l 488 -12 b 67 479 205 3 67 220 b 522 972 67 749 214 972 b 932 703 712 972 857 879 l 795 648 b 521 833 755 781 655 833 b 212 486 309 833 212 684 b 521 126 212 282 304 126 b 798 314 654 126 743 180 l 933 258 "},"Ċ":{"ha":976,"x_min":0,"x_max":0,"o":"m 414 1238 l 561 1238 l 561 1090 l 414 1090 m 521 -13 b 67 479 216 -13 67 210 b 522 972 67 749 214 972 b 932 703 712 972 857 879 l 795 648 b 521 833 755 781 655 833 b 212 486 309 833 212 684 b 521 126 212 282 304 126 b 798 314 654 126 743 180 l 933 258 b 521 -13 857 82 710 -13 "},"D":{"ha":966,"x_min":0,"x_max":0,"o":"m 133 958 l 404 958 b 900 472 728 958 900 783 b 403 0 900 173 723 0 l 133 0 m 389 134 b 754 478 615 134 754 230 b 402 824 754 719 649 824 l 279 824 l 279 134 "},"Ǳ":{"ha":1823,"x_min":0,"x_max":0,"o":"m 404 958 b 900 472 728 958 900 783 b 403 0 900 173 723 0 l 133 0 l 133 958 l 404 958 m 1767 850 l 1202 132 l 1766 132 l 1766 0 l 1000 0 l 1000 103 l 1567 824 l 1031 824 l 1031 958 l 1767 958 m 389 134 b 754 478 615 134 754 230 b 402 824 754 719 649 824 l 279 824 l 279 134 l 389 134 "},"Ǆ":{"ha":1823,"x_min":0,"x_max":0,"o":"m 1384 1018 l 1173 1238 l 1283 1238 l 1384 1133 l 1485 1238 l 1596 1238 m 404 958 b 900 472 728 958 900 783 b 403 0 900 173 723 0 l 133 0 l 133 958 l 404 958 m 1767 850 l 1202 132 l 1766 132 l 1766 0 l 1000 0 l 1000 103 l 1567 824 l 1031 824 l 1031 958 l 1767 958 m 389 134 b 754 478 615 134 754 230 b 402 824 754 719 649 824 l 279 824 l 279 134 l 389 134 "},"Ð":{"ha":966,"x_min":0,"x_max":0,"o":"m 404 958 b 900 472 728 958 900 783 b 403 0 900 173 723 0 l 133 0 l 133 432 l 33 432 l 33 527 l 133 527 l 133 958 l 404 958 m 389 134 b 754 478 615 134 754 230 b 402 824 754 719 649 824 l 279 824 l 279 527 l 463 527 l 463 432 l 279 432 l 279 134 l 389 134 "},"Ď":{"ha":966,"x_min":0,"x_max":0,"o":"m 283 1238 l 393 1238 l 494 1133 l 595 1238 l 705 1238 l 494 1018 m 133 958 l 404 958 b 900 472 728 958 900 783 b 403 0 900 173 723 0 l 133 0 m 389 134 b 754 478 615 134 754 230 b 402 824 754 719 649 824 l 279 824 l 279 134 "},"Đ":{"ha":966,"x_min":0,"x_max":0,"o":"m 404 958 b 900 472 728 958 900 783 b 403 0 900 173 723 0 l 133 0 l 133 432 l 33 432 l 33 527 l 133 527 l 133 958 l 404 958 m 389 134 b 754 478 615 134 754 230 b 402 824 754 719 649 824 l 279 824 l 279 527 l 463 527 l 463 432 l 279 432 l 279 134 l 389 134 "},"ǲ":{"ha":1645,"x_min":0,"x_max":0,"o":"m 404 958 b 900 472 728 958 900 783 b 403 0 900 173 723 0 l 133 0 l 133 958 l 404 958 m 389 134 b 754 478 615 134 754 230 b 402 824 754 719 649 824 l 279 824 l 279 134 l 389 134 m 1596 575 l 1202 118 l 1595 118 l 1595 0 l 1010 0 l 1010 95 l 1417 559 l 1030 559 l 1030 677 l 1596 677 "},"ǅ":{"ha":1645,"x_min":0,"x_max":0,"o":"m 404 958 b 900 472 728 958 900 783 b 403 0 900 173 723 0 l 133 0 l 133 958 l 404 958 m 1302 739 l 1091 958 l 1201 958 l 1302 853 l 1403 958 l 1514 958 m 389 134 b 754 478 615 134 754 230 b 402 824 754 719 649 824 l 279 824 l 279 134 l 389 134 m 1596 575 l 1202 118 l 1595 118 l 1595 0 l 1010 0 l 1010 95 l 1417 559 l 1030 559 l 1030 677 l 1596 677 "},"E":{"ha":851,"x_min":0,"x_max":0,"o":"m 133 958 l 767 958 l 767 824 l 279 824 l 279 547 l 728 547 l 728 413 l 279 413 l 279 138 l 767 138 l 767 0 l 133 0 "},"É":{"ha":851,"x_min":0,"x_max":0,"o":"m 534 1238 l 684 1238 l 486 1042 l 382 1042 m 133 958 l 767 958 l 767 824 l 279 824 l 279 547 l 728 547 l 728 413 l 279 413 l 279 138 l 767 138 l 767 0 l 133 0 "},"Ě":{"ha":851,"x_min":0,"x_max":0,"o":"m 239 1238 l 349 1238 l 450 1133 l 551 1238 l 662 1238 l 450 1018 m 133 958 l 767 958 l 767 824 l 279 824 l 279 547 l 728 547 l 728 413 l 279 413 l 279 138 l 767 138 l 767 0 l 133 0 "},"Ê":{"ha":851,"x_min":0,"x_max":0,"o":"m 450 1259 l 661 1027 l 551 1027 l 450 1139 l 349 1027 l 239 1027 m 133 958 l 767 958 l 767 824 l 279 824 l 279 547 l 728 547 l 728 413 l 279 413 l 279 138 l 767 138 l 767 0 l 133 0 "},"Ế":{"ha":851,"x_min":0,"x_max":0,"o":"m 534 1517 l 684 1517 l 486 1322 l 382 1322 m 450 1259 l 661 1027 l 551 1027 l 450 1139 l 349 1027 l 239 1027 m 133 958 l 767 958 l 767 824 l 279 824 l 279 547 l 728 547 l 728 413 l 279 413 l 279 138 l 767 138 l 767 0 l 133 0 "},"Ề":{"ha":851,"x_min":0,"x_max":0,"o":"m 212 1517 l 361 1517 l 505 1322 l 397 1322 m 450 1259 l 661 1027 l 551 1027 l 450 1139 l 349 1027 l 239 1027 m 133 958 l 767 958 l 767 824 l 279 824 l 279 547 l 728 547 l 728 413 l 279 413 l 279 138 l 767 138 l 767 0 l 133 0 "},"Ễ":{"ha":851,"x_min":0,"x_max":0,"o":"m 541 1318 b 360 1423 431 1318 418 1423 b 307 1325 327 1423 307 1388 l 226 1325 b 364 1510 226 1444 279 1510 b 541 1407 463 1510 485 1407 b 591 1506 570 1407 591 1442 l 675 1506 b 541 1318 675 1387 623 1318 m 450 1259 l 661 1027 l 551 1027 l 450 1139 l 349 1027 l 239 1027 m 133 958 l 767 958 l 767 824 l 279 824 l 279 547 l 728 547 l 728 413 l 279 413 l 279 138 l 767 138 l 767 0 l 133 0 "},"Ë":{"ha":851,"x_min":0,"x_max":0,"o":"m 260 1238 l 378 1238 l 378 1090 l 260 1090 m 522 1238 l 640 1238 l 640 1090 l 522 1090 m 133 958 l 767 958 l 767 824 l 279 824 l 279 547 l 728 547 l 728 413 l 279 413 l 279 138 l 767 138 l 767 0 l 133 0 "},"Ė":{"ha":851,"x_min":0,"x_max":0,"o":"m 377 1238 l 524 1238 l 524 1090 l 377 1090 m 133 958 l 767 958 l 767 824 l 279 824 l 279 547 l 728 547 l 728 413 l 279 413 l 279 138 l 767 138 l 767 0 l 133 0 "},"È":{"ha":851,"x_min":0,"x_max":0,"o":"m 212 1238 l 361 1238 l 505 1042 l 397 1042 m 133 958 l 767 958 l 767 824 l 279 824 l 279 547 l 728 547 l 728 413 l 279 413 l 279 138 l 767 138 l 767 0 l 133 0 "},"Ē":{"ha":851,"x_min":0,"x_max":0,"o":"m 262 1157 l 640 1157 l 640 1074 l 262 1074 m 133 958 l 767 958 l 767 824 l 279 824 l 279 547 l 728 547 l 728 413 l 279 413 l 279 138 l 767 138 l 767 0 l 133 0 "},"Ę":{"ha":851,"x_min":0,"x_max":0,"o":"m 827 -224 b 679 -307 794 -274 747 -307 b 530 -172 593 -307 530 -253 b 654 0 530 -68 630 -8 l 133 0 l 133 958 l 767 958 l 767 824 l 279 824 l 279 547 l 728 547 l 728 413 l 279 413 l 279 138 l 767 138 l 767 0 b 615 -153 733 -9 615 -66 b 675 -220 615 -204 642 -220 b 755 -176 709 -220 734 -205 "},"Ẽ":{"ha":851,"x_min":0,"x_max":0,"o":"m 541 1039 b 360 1144 431 1039 418 1144 b 307 1046 327 1144 307 1108 l 226 1046 b 364 1231 226 1164 279 1231 b 541 1127 463 1231 485 1127 b 591 1226 570 1127 591 1163 l 675 1226 b 541 1039 675 1107 623 1039 m 133 958 l 767 958 l 767 824 l 279 824 l 279 547 l 728 547 l 728 413 l 279 413 l 279 138 l 767 138 l 767 0 l 133 0 "},"F":{"ha":843,"x_min":0,"x_max":0,"o":"m 133 958 l 802 958 l 802 824 l 279 824 l 279 547 l 739 547 l 739 413 l 279 413 l 279 0 l 133 0 "},"G":{"ha":1042,"x_min":0,"x_max":0,"o":"m 521 -13 b 67 479 216 -13 67 210 b 522 972 67 749 214 972 b 930 703 711 972 855 879 l 801 648 b 521 845 754 784 653 845 b 212 486 309 845 212 684 b 521 118 212 282 304 118 b 799 367 679 118 787 204 l 802 392 l 581 392 l 581 510 l 946 510 l 946 0 l 830 0 l 817 147 b 521 -13 762 48 656 -13 "},"Ğ":{"ha":1042,"x_min":0,"x_max":0,"o":"m 520 1055 b 309 1238 375 1055 309 1120 l 408 1238 b 520 1139 408 1171 455 1139 b 632 1238 588 1139 632 1173 l 732 1238 b 520 1055 732 1116 660 1055 m 521 -13 b 67 479 216 -13 67 210 b 522 972 67 749 214 972 b 930 703 711 972 855 879 l 801 648 b 521 845 754 784 653 845 b 212 486 309 845 212 684 b 521 118 212 282 304 118 b 799 367 679 118 787 204 l 802 392 l 581 392 l 581 510 l 946 510 l 946 0 l 830 0 l 817 147 b 521 -13 762 48 656 -13 "},"Ģ":{"ha":1042,"x_min":0,"x_max":0,"o":"m 521 -13 b 67 479 216 -13 67 210 b 522 972 67 749 214 972 b 930 703 711 972 855 879 l 801 648 b 521 845 754 784 653 845 b 212 486 309 845 212 684 b 521 118 212 282 304 118 b 799 367 679 118 787 204 l 802 392 l 581 392 l 581 510 l 946 510 l 946 0 l 830 0 l 817 147 b 521 -13 762 48 656 -13 m 461 -74 l 608 -74 l 442 -309 l 359 -309 "},"Ġ":{"ha":1042,"x_min":0,"x_max":0,"o":"m 446 1238 l 593 1238 l 593 1090 l 446 1090 m 521 -13 b 67 479 216 -13 67 210 b 522 972 67 749 214 972 b 930 703 711 972 855 879 l 801 648 b 521 845 754 784 653 845 b 212 486 309 845 212 684 b 521 118 212 282 304 118 b 799 367 679 118 787 204 l 802 392 l 581 392 l 581 510 l 946 510 l 946 0 l 830 0 l 817 147 b 521 -13 762 48 656 -13 "},"H":{"ha":1005,"x_min":0,"x_max":0,"o":"m 133 958 l 279 958 l 279 547 l 726 547 l 726 958 l 872 958 l 872 0 l 726 0 l 726 413 l 279 413 l 279 0 l 133 0 "},"Ħ":{"ha":1005,"x_min":0,"x_max":0,"o":"m 949 714 l 872 714 l 872 0 l 726 0 l 726 413 l 279 413 l 279 0 l 133 0 l 133 714 l 56 714 l 56 798 l 133 798 l 133 958 l 279 958 l 279 798 l 726 798 l 726 958 l 872 958 l 872 798 l 949 798 m 726 714 l 279 714 l 279 547 l 726 547 "},"I":{"ha":412,"x_min":0,"x_max":0,"o":"m 133 958 l 279 958 l 279 0 l 133 0 "},"Ĳ":{"ha":1192,"x_min":0,"x_max":0,"o":"m 133 958 l 279 958 l 279 0 l 133 0 m 762 -13 b 444 292 571 -13 456 123 l 587 309 b 762 123 595 203 650 123 b 932 345 895 123 932 202 l 932 824 l 562 824 l 562 958 l 1078 958 l 1078 347 b 762 -13 1078 137 988 -13 "},"Í":{"ha":412,"x_min":0,"x_max":0,"o":"m 288 1238 l 438 1238 l 241 1042 l 137 1042 m 133 958 l 279 958 l 279 0 l 133 0 "},"Ǐ":{"ha":412,"x_min":0,"x_max":0,"o":"m -6 1238 l 104 1238 l 205 1133 l 306 1238 l 416 1238 l 205 1018 m 133 958 l 279 958 l 279 0 l 133 0 "},"Î":{"ha":412,"x_min":0,"x_max":0,"o":"m 204 1259 l 416 1027 l 306 1027 l 204 1139 l 104 1027 l -7 1027 m 133 958 l 279 958 l 279 0 l 133 0 "},"Ï":{"ha":412,"x_min":0,"x_max":0,"o":"m 15 1238 l 133 1238 l 133 1090 l 15 1090 m 276 1238 l 394 1238 l 394 1090 l 276 1090 m 133 958 l 279 958 l 279 0 l 133 0 "},"İ":{"ha":412,"x_min":0,"x_max":0,"o":"m 132 1238 l 279 1238 l 279 1090 l 132 1090 m 133 958 l 279 958 l 279 0 l 133 0 "},"Ì":{"ha":412,"x_min":0,"x_max":0,"o":"m -34 1238 l 116 1238 l 259 1042 l 152 1042 m 133 958 l 279 958 l 279 0 l 133 0 "},"Ī":{"ha":412,"x_min":0,"x_max":0,"o":"m 17 1157 l 394 1157 l 394 1074 l 17 1074 m 133 958 l 279 958 l 279 0 l 133 0 "},"Į":{"ha":412,"x_min":0,"x_max":0,"o":"m 338 -224 b 191 -307 306 -274 259 -307 b 42 -172 104 -307 42 -253 b 166 0 42 -68 142 -8 l 133 0 l 133 958 l 279 958 l 279 0 b 127 -153 245 -9 127 -66 b 187 -220 127 -204 153 -220 b 267 -176 221 -220 246 -205 "},"Ĩ":{"ha":412,"x_min":0,"x_max":0,"o":"m 295 1039 b 115 1144 186 1039 173 1144 b 62 1046 81 1144 62 1108 l -20 1046 b 119 1231 -20 1164 34 1231 b 296 1127 218 1231 239 1127 b 345 1226 324 1127 345 1163 l 430 1226 b 295 1039 430 1107 378 1039 m 133 958 l 279 958 l 279 0 l 133 0 "},"J":{"ha":780,"x_min":0,"x_max":0,"o":"m 349 -13 b 32 292 159 -13 44 123 l 175 309 b 349 123 183 203 237 123 b 519 345 483 123 519 202 l 519 824 l 149 824 l 149 958 l 665 958 l 665 347 b 349 -13 665 137 576 -13 "},"K":{"ha":1002,"x_min":0,"x_max":0,"o":"m 133 958 l 279 958 l 279 433 l 772 958 l 968 958 l 590 570 l 979 0 l 798 0 l 489 473 l 279 255 l 279 0 l 133 0 "},"Ķ":{"ha":1002,"x_min":0,"x_max":0,"o":"m 133 958 l 279 958 l 279 433 l 772 958 l 968 958 l 590 570 l 979 0 l 798 0 l 489 473 l 279 255 l 279 0 l 133 0 m 433 -74 l 580 -74 l 414 -309 l 331 -309 "},"L":{"ha":723,"x_min":0,"x_max":0,"o":"m 133 958 l 279 958 l 279 138 l 698 138 l 698 0 l 133 0 "},"Ǉ":{"ha":1528,"x_min":0,"x_max":0,"o":"m 133 958 l 279 958 l 279 138 l 698 138 l 698 0 l 133 0 m 1097 -13 b 780 292 907 -13 792 123 l 923 309 b 1097 123 931 203 985 123 b 1267 345 1231 123 1267 202 l 1267 824 l 897 824 l 897 958 l 1413 958 l 1413 347 b 1097 -13 1413 137 1324 -13 "},"Ĺ":{"ha":723,"x_min":0,"x_max":0,"o":"m 296 1238 l 446 1238 l 248 1042 l 144 1042 m 133 958 l 279 958 l 279 138 l 698 138 l 698 0 l 133 0 "},"Ľ":{"ha":1117,"x_min":0,"x_max":0,"o":"m 133 958 l 279 958 l 279 138 l 698 138 l 698 0 l 133 0 m 900 958 l 1047 958 l 905 658 l 821 658 "},"Ļ":{"ha":723,"x_min":0,"x_max":0,"o":"m 133 958 l 279 958 l 279 138 l 698 138 l 698 0 l 133 0 m 355 -74 l 502 -74 l 336 -309 l 253 -309 "},"ǈ":{"ha":1087,"x_min":0,"x_max":0,"o":"m 133 958 l 279 958 l 279 138 l 698 138 l 698 0 l 133 0 m 835 958 l 983 958 l 983 810 l 835 810 m 788 -296 b 673 -274 749 -296 701 -286 l 709 -153 b 774 -169 733 -163 758 -169 b 838 -86 818 -169 838 -142 l 838 677 l 979 677 l 979 -76 b 788 -296 979 -200 920 -296 "},"Ł":{"ha":723,"x_min":0,"x_max":0,"o":"m 698 138 l 698 0 l 133 0 l 133 235 l 37 126 l 37 282 l 133 391 l 133 958 l 279 958 l 279 555 l 445 743 l 445 588 l 279 400 l 279 138 "},"M":{"ha":1215,"x_min":0,"x_max":0,"o":"m 1082 958 l 1082 0 l 941 0 l 941 757 l 678 81 l 536 81 l 273 757 l 273 0 l 133 0 l 133 958 l 330 958 l 608 245 l 884 958 "},"N":{"ha":981,"x_min":0,"x_max":0,"o":"m 847 958 l 847 0 l 700 0 l 273 719 l 273 0 l 133 0 l 133 958 l 279 958 l 707 242 l 707 958 "},"Ǌ":{"ha":1761,"x_min":0,"x_max":0,"o":"m 707 958 l 847 958 l 847 0 l 700 0 l 273 719 l 273 0 l 133 0 l 133 958 l 279 958 l 707 242 m 1646 958 l 1646 347 b 1330 -13 1646 137 1556 -13 b 1013 292 1139 -13 1025 123 l 1156 309 b 1330 123 1164 203 1218 123 b 1500 345 1463 123 1500 202 l 1500 824 l 1130 824 l 1130 958 "},"Ń":{"ha":981,"x_min":0,"x_max":0,"o":"m 526 1042 l 422 1042 l 573 1238 l 723 1238 m 847 958 l 847 0 l 700 0 l 273 719 l 273 0 l 133 0 l 133 958 l 279 958 l 707 242 l 707 958 "},"Ň":{"ha":981,"x_min":0,"x_max":0,"o":"m 490 1018 l 279 1238 l 389 1238 l 490 1133 l 591 1238 l 701 1238 m 847 958 l 847 0 l 700 0 l 273 719 l 273 0 l 133 0 l 133 958 l 279 958 l 707 242 l 707 958 "},"Ņ":{"ha":981,"x_min":0,"x_max":0,"o":"m 847 958 l 847 0 l 700 0 l 273 719 l 273 0 l 133 0 l 133 958 l 279 958 l 707 242 l 707 958 m 429 -74 l 576 -74 l 410 -309 l 327 -309 "},"Ŋ":{"ha":981,"x_min":0,"x_max":0,"o":"m 846 958 l 846 -7 b 635 -244 846 -132 800 -244 b 538 -234 608 -244 574 -241 l 539 -142 b 598 -149 559 -146 581 -149 b 720 -60 672 -149 720 -116 b 712 -26 720 -48 719 -37 l 273 722 l 273 0 l 133 0 l 133 958 l 279 958 l 707 235 l 707 958 "},"ǋ":{"ha":1338,"x_min":0,"x_max":0,"o":"m 707 958 l 847 958 l 847 0 l 700 0 l 273 719 l 273 0 l 133 0 l 133 958 l 279 958 l 707 242 m 1234 958 l 1234 810 l 1086 810 l 1086 958 m 1089 677 l 1230 677 l 1230 -76 b 1039 -296 1230 -200 1171 -296 b 924 -274 1000 -296 952 -286 l 960 -153 b 1025 -169 984 -163 1008 -169 b 1089 -86 1069 -169 1089 -142 "},"Ñ":{"ha":981,"x_min":0,"x_max":0,"o":"m 399 1144 b 347 1046 366 1144 347 1108 l 265 1046 b 404 1231 265 1164 319 1231 b 581 1127 503 1231 524 1127 b 630 1226 609 1127 630 1163 l 715 1226 b 580 1039 715 1107 663 1039 b 399 1144 471 1039 458 1144 m 847 958 l 847 0 l 700 0 l 273 719 l 273 0 l 133 0 l 133 958 l 279 958 l 707 242 l 707 958 "},"O":{"ha":1043,"x_min":0,"x_max":0,"o":"m 522 -13 b 66 479 211 -13 66 218 b 522 971 66 741 211 971 b 977 479 832 971 977 741 b 522 -13 977 218 832 -13 m 522 117 b 823 479 739 117 823 286 b 522 842 823 673 739 842 b 220 479 304 842 220 673 b 522 117 220 286 304 117 "},"Ó":{"ha":1043,"x_min":0,"x_max":0,"o":"m 604 1238 l 754 1238 l 557 1042 l 453 1042 m 522 -13 b 66 479 211 -13 66 218 b 522 971 66 741 211 971 b 977 479 832 971 977 741 b 522 -13 977 218 832 -13 m 522 117 b 823 479 739 117 823 286 b 522 842 823 673 739 842 b 220 479 304 842 220 673 b 522 117 220 286 304 117 "},"Ǒ":{"ha":1043,"x_min":0,"x_max":0,"o":"m 310 1238 l 420 1238 l 521 1133 l 622 1238 l 732 1238 l 521 1018 m 522 -13 b 66 479 211 -13 66 218 b 522 971 66 741 211 971 b 977 479 832 971 977 741 b 522 -13 977 218 832 -13 m 522 117 b 823 479 739 117 823 286 b 522 842 823 673 739 842 b 220 479 304 842 220 673 b 522 117 220 286 304 117 "},"Ô":{"ha":1043,"x_min":0,"x_max":0,"o":"m 520 1259 l 732 1027 l 622 1027 l 520 1139 l 420 1027 l 309 1027 m 522 -13 b 66 479 211 -13 66 218 b 522 971 66 741 211 971 b 977 479 832 971 977 741 b 522 -13 977 218 832 -13 m 522 117 b 823 479 739 117 823 286 b 522 842 823 673 739 842 b 220 479 304 842 220 673 b 522 117 220 286 304 117 "},"Ố":{"ha":1043,"x_min":0,"x_max":0,"o":"m 604 1517 l 754 1517 l 557 1322 l 453 1322 m 520 1259 l 732 1027 l 622 1027 l 520 1139 l 420 1027 l 309 1027 m 522 -13 b 66 479 211 -13 66 218 b 522 971 66 741 211 971 b 977 479 832 971 977 741 b 522 -13 977 218 832 -13 m 522 117 b 823 479 739 117 823 286 b 522 842 823 673 739 842 b 220 479 304 842 220 673 b 522 117 220 286 304 117 "},"Ồ":{"ha":1043,"x_min":0,"x_max":0,"o":"m 282 1517 l 432 1517 l 575 1322 l 468 1322 m 520 1259 l 732 1027 l 622 1027 l 520 1139 l 420 1027 l 309 1027 m 522 -13 b 66 479 211 -13 66 218 b 522 971 66 741 211 971 b 977 479 832 971 977 741 b 522 -13 977 218 832 -13 m 522 117 b 823 479 739 117 823 286 b 522 842 823 673 739 842 b 220 479 304 842 220 673 b 522 117 220 286 304 117 "},"Ỗ":{"ha":1043,"x_min":0,"x_max":0,"o":"m 611 1318 b 431 1423 502 1318 489 1423 b 378 1325 397 1423 378 1388 l 296 1325 b 435 1510 296 1444 350 1510 b 612 1407 534 1510 555 1407 b 661 1506 640 1407 661 1442 l 746 1506 b 611 1318 746 1387 694 1318 m 520 1259 l 732 1027 l 622 1027 l 520 1139 l 420 1027 l 309 1027 m 522 -13 b 66 479 211 -13 66 218 b 522 971 66 741 211 971 b 977 479 832 971 977 741 b 522 -13 977 218 832 -13 m 522 117 b 823 479 739 117 823 286 b 522 842 823 673 739 842 b 220 479 304 842 220 673 b 522 117 220 286 304 117 "},"Ö":{"ha":1043,"x_min":0,"x_max":0,"o":"m 331 1238 l 449 1238 l 449 1090 l 331 1090 m 592 1238 l 710 1238 l 710 1090 l 592 1090 m 522 -13 b 66 479 211 -13 66 218 b 522 971 66 741 211 971 b 977 479 832 971 977 741 b 522 -13 977 218 832 -13 m 522 117 b 823 479 739 117 823 286 b 522 842 823 673 739 842 b 220 479 304 842 220 673 b 522 117 220 286 304 117 "},"Ò":{"ha":1043,"x_min":0,"x_max":0,"o":"m 282 1238 l 432 1238 l 575 1042 l 468 1042 m 522 -13 b 66 479 211 -13 66 218 b 522 971 66 741 211 971 b 977 479 832 971 977 741 b 522 -13 977 218 832 -13 m 522 117 b 823 479 739 117 823 286 b 522 842 823 673 739 842 b 220 479 304 842 220 673 b 522 117 220 286 304 117 "},"Ő":{"ha":1043,"x_min":0,"x_max":0,"o":"m 473 1238 l 600 1238 l 425 1019 l 321 1019 m 726 1238 l 876 1238 l 678 1019 l 575 1019 m 522 -13 b 66 479 211 -13 66 218 b 522 971 66 741 211 971 b 977 479 832 971 977 741 b 522 -13 977 218 832 -13 m 522 117 b 823 479 739 117 823 286 b 522 842 823 673 739 842 b 220 479 304 842 220 673 b 522 117 220 286 304 117 "},"Ō":{"ha":1043,"x_min":0,"x_max":0,"o":"m 333 1157 l 710 1157 l 710 1074 l 333 1074 m 522 -13 b 66 479 211 -13 66 218 b 522 971 66 741 211 971 b 977 479 832 971 977 741 b 522 -13 977 218 832 -13 m 522 117 b 823 479 739 117 823 286 b 522 842 823 673 739 842 b 220 479 304 842 220 673 b 522 117 220 286 304 117 "},"Ø":{"ha":1043,"x_min":0,"x_max":0,"o":"m 814 874 b 977 479 924 783 977 637 b 522 -13 977 218 832 -13 b 302 35 436 -13 363 5 l 281 0 l 175 0 l 227 85 b 66 479 119 177 66 323 b 522 971 66 741 211 971 b 740 924 606 971 679 954 l 761 958 l 866 958 l 814 874 m 220 479 b 302 209 220 374 245 276 l 669 808 b 522 842 629 829 580 842 b 220 479 304 842 220 673 m 522 117 b 823 479 739 117 823 286 b 739 751 823 585 798 684 l 373 151 b 522 117 414 129 463 117 "},"Ǿ":{"ha":1043,"x_min":0,"x_max":0,"o":"m 557 1042 l 453 1042 l 604 1238 l 754 1238 m 814 874 b 977 479 924 783 977 637 b 522 -13 977 218 832 -13 b 302 35 436 -13 363 5 l 281 0 l 175 0 l 227 85 b 66 479 119 177 66 323 b 522 971 66 741 211 971 b 740 924 606 971 679 954 l 761 958 l 866 958 l 814 874 m 220 479 b 302 209 220 374 245 276 l 669 808 b 522 842 629 829 580 842 b 220 479 304 842 220 673 m 522 117 b 823 479 739 117 823 286 b 739 751 823 585 798 684 l 373 151 b 522 117 414 129 463 117 "},"Õ":{"ha":1043,"x_min":0,"x_max":0,"o":"m 611 1039 b 431 1144 502 1039 489 1144 b 378 1046 397 1144 378 1108 l 296 1046 b 435 1231 296 1164 350 1231 b 612 1127 534 1231 555 1127 b 661 1226 640 1127 661 1163 l 746 1226 b 611 1039 746 1107 694 1039 m 522 -13 b 66 479 211 -13 66 218 b 522 971 66 741 211 971 b 977 479 832 971 977 741 b 522 -13 977 218 832 -13 m 522 117 b 823 479 739 117 823 286 b 522 842 823 673 739 842 b 220 479 304 842 220 673 b 522 117 220 286 304 117 "},"Œ":{"ha":1547,"x_min":0,"x_max":0,"o":"m 975 824 l 975 547 l 1423 547 l 1423 413 l 975 413 l 975 138 l 1463 138 l 1463 0 l 829 0 l 829 96 b 522 -13 755 28 653 -13 b 66 479 211 -13 66 218 b 522 971 66 741 211 971 b 829 862 653 971 755 930 l 829 958 l 1463 958 l 1463 824 m 522 117 b 823 479 739 117 823 286 b 522 842 823 673 739 842 b 220 479 304 842 220 673 b 522 117 220 286 304 117 "},"P":{"ha":795,"x_min":0,"x_max":0,"o":"m 133 958 l 421 958 b 754 679 616 958 754 857 b 421 405 754 503 616 405 l 278 405 l 278 0 l 133 0 m 421 541 b 610 679 551 541 610 589 b 421 822 610 770 549 822 l 278 822 l 278 541 "},"Þ":{"ha":785,"x_min":0,"x_max":0,"o":"m 133 958 l 267 958 l 267 824 l 446 824 b 743 555 640 824 743 719 b 415 274 743 367 608 274 l 267 274 l 267 0 l 133 0 m 415 395 b 610 551 546 395 610 450 b 415 710 610 652 545 710 l 267 710 l 267 395 "},"Q":{"ha":1070,"x_min":0,"x_max":0,"o":"m 782 64 b 521 -13 713 15 625 -13 b 66 479 210 -13 66 218 b 521 971 66 741 210 971 b 976 478 832 971 976 739 b 876 146 976 352 941 233 l 1013 16 l 919 -73 m 521 125 b 678 165 585 125 638 140 l 538 296 l 633 382 l 770 252 b 830 479 812 317 830 393 b 521 833 830 673 739 833 b 212 479 304 833 212 673 b 521 125 212 286 304 125 "},"R":{"ha":859,"x_min":0,"x_max":0,"o":"m 133 958 l 429 958 b 756 682 610 958 756 858 b 564 433 756 557 677 467 l 830 0 l 663 0 l 422 418 b 364 417 404 418 384 417 l 279 417 l 279 0 l 133 0 m 441 536 b 612 679 549 540 612 593 b 430 827 612 770 543 827 l 280 827 l 280 536 "},"Ŕ":{"ha":859,"x_min":0,"x_max":0,"o":"m 505 1238 l 655 1238 l 458 1042 l 354 1042 m 133 958 l 429 958 b 756 682 610 958 756 858 b 564 433 756 557 677 467 l 830 0 l 663 0 l 422 418 b 364 417 404 418 384 417 l 279 417 l 279 0 l 133 0 m 441 536 b 612 679 549 540 612 593 b 430 827 612 770 543 827 l 280 827 l 280 536 "},"Ř":{"ha":859,"x_min":0,"x_max":0,"o":"m 211 1238 l 321 1238 l 422 1133 l 523 1238 l 633 1238 l 422 1018 m 133 958 l 429 958 b 756 682 610 958 756 858 b 564 433 756 557 677 467 l 830 0 l 663 0 l 422 418 b 364 417 404 418 384 417 l 279 417 l 279 0 l 133 0 m 441 536 b 612 679 549 540 612 593 b 430 827 612 770 543 827 l 280 827 l 280 536 "},"Ŗ":{"ha":859,"x_min":0,"x_max":0,"o":"m 133 958 l 429 958 b 756 682 610 958 756 858 b 564 433 756 557 677 467 l 830 0 l 663 0 l 422 418 b 364 417 404 418 384 417 l 279 417 l 279 0 l 133 0 m 441 536 b 612 679 549 540 612 593 b 430 827 612 770 543 827 l 280 827 l 280 536 m 407 -74 l 554 -74 l 388 -309 l 305 -309 "},"S":{"ha":774,"x_min":0,"x_max":0,"o":"m 397 -10 b 42 265 230 -10 72 83 l 186 302 b 400 119 201 178 290 119 b 577 261 512 119 577 181 b 104 713 577 477 104 406 b 393 971 104 876 235 971 b 677 808 511 971 614 921 l 557 733 b 388 842 519 804 460 842 b 250 721 309 842 250 791 b 723 274 250 524 723 591 b 397 -10 723 99 578 -10 "},"Ś":{"ha":774,"x_min":0,"x_max":0,"o":"m 467 1238 l 616 1238 l 419 1042 l 315 1042 m 397 -10 b 42 265 230 -10 72 83 l 186 302 b 400 119 201 178 290 119 b 577 261 512 119 577 181 b 104 713 577 477 104 406 b 393 971 104 876 235 971 b 677 808 511 971 614 921 l 557 733 b 388 842 519 804 460 842 b 250 721 309 842 250 791 b 723 274 250 524 723 591 b 397 -10 723 99 578 -10 "},"Š":{"ha":774,"x_min":0,"x_max":0,"o":"m 172 1238 l 282 1238 l 383 1133 l 484 1238 l 595 1238 l 383 1018 m 397 -10 b 42 265 230 -10 72 83 l 186 302 b 400 119 201 178 290 119 b 577 261 512 119 577 181 b 104 713 577 477 104 406 b 393 971 104 876 235 971 b 677 808 511 971 614 921 l 557 733 b 388 842 519 804 460 842 b 250 721 309 842 250 791 b 723 274 250 524 723 591 b 397 -10 723 99 578 -10 "},"Ş":{"ha":774,"x_min":0,"x_max":0,"o":"m 723 274 b 419 -9 723 106 589 -1 l 373 -75 b 412 -83 387 -77 401 -79 b 513 -206 478 -101 513 -144 b 362 -353 513 -290 450 -353 b 230 -265 305 -353 252 -317 l 309 -232 b 366 -272 317 -255 340 -272 b 429 -211 404 -272 429 -248 b 313 -132 429 -165 384 -134 b 261 -131 298 -132 282 -131 l 338 -6 b 42 265 195 13 68 104 l 186 302 b 400 119 201 178 290 119 b 577 261 512 119 577 181 b 104 713 577 477 104 406 b 393 971 104 876 235 971 b 677 808 511 971 614 921 l 557 733 b 388 842 519 804 460 842 b 250 721 309 842 250 791 b 723 274 250 524 723 591 "},"Ș":{"ha":774,"x_min":0,"x_max":0,"o":"m 397 -10 b 42 265 230 -10 72 83 l 186 302 b 400 119 201 178 290 119 b 577 261 512 119 577 181 b 104 713 577 477 104 406 b 393 971 104 876 235 971 b 677 808 511 971 614 921 l 557 733 b 388 842 519 804 460 842 b 250 721 309 842 250 791 b 723 274 250 524 723 591 b 397 -10 723 99 578 -10 m 322 -74 l 469 -74 l 303 -309 l 220 -309 "},"T":{"ha":817,"x_min":0,"x_max":0,"o":"m 336 827 l 24 827 l 24 958 l 793 958 l 793 827 l 481 827 l 481 0 l 336 0 "},"Ŧ":{"ha":817,"x_min":0,"x_max":0,"o":"m 481 827 l 481 527 l 624 527 l 624 432 l 481 432 l 481 0 l 336 0 l 336 432 l 193 432 l 193 527 l 336 527 l 336 827 l 24 827 l 24 958 l 793 958 l 793 827 "},"Ť":{"ha":817,"x_min":0,"x_max":0,"o":"m 197 1238 l 307 1238 l 408 1133 l 509 1238 l 620 1238 l 408 1018 m 336 827 l 24 827 l 24 958 l 793 958 l 793 827 l 481 827 l 481 0 l 336 0 "},"Ţ":{"ha":817,"x_min":0,"x_max":0,"o":"m 336 827 l 24 827 l 24 958 l 793 958 l 793 827 l 481 827 l 481 0 l 336 0 m 387 -353 b 255 -265 330 -353 277 -317 l 334 -232 b 391 -272 342 -255 365 -272 b 454 -211 429 -272 454 -248 b 338 -132 454 -165 409 -134 b 286 -131 323 -132 307 -131 l 367 -1 l 450 -1 l 398 -75 b 437 -83 412 -77 426 -79 b 538 -206 503 -101 538 -144 b 387 -353 538 -290 475 -353 "},"Ț":{"ha":817,"x_min":0,"x_max":0,"o":"m 336 827 l 24 827 l 24 958 l 793 958 l 793 827 l 481 827 l 481 0 l 336 0 m 347 -74 l 494 -74 l 328 -309 l 245 -309 "},"U":{"ha":941,"x_min":0,"x_max":0,"o":"m 470 -13 b 112 369 222 -13 112 136 l 112 958 l 258 958 l 258 385 b 470 128 258 220 309 128 b 684 387 631 128 684 221 l 684 958 l 829 958 l 829 376 b 470 -13 829 136 718 -13 "},"Ú":{"ha":941,"x_min":0,"x_max":0,"o":"m 551 1238 l 701 1238 l 504 1042 l 400 1042 m 470 -13 b 112 369 222 -13 112 136 l 112 958 l 258 958 l 258 385 b 470 128 258 220 309 128 b 684 387 631 128 684 221 l 684 958 l 829 958 l 829 376 b 470 -13 829 136 718 -13 "},"Ǔ":{"ha":941,"x_min":0,"x_max":0,"o":"m 257 1238 l 367 1238 l 468 1133 l 569 1238 l 680 1238 l 468 1018 m 470 -13 b 112 369 222 -13 112 136 l 112 958 l 258 958 l 258 385 b 470 128 258 220 309 128 b 684 387 631 128 684 221 l 684 958 l 829 958 l 829 376 b 470 -13 829 136 718 -13 "},"Û":{"ha":941,"x_min":0,"x_max":0,"o":"m 467 1259 l 679 1027 l 569 1027 l 467 1139 l 367 1027 l 256 1027 m 470 -13 b 112 369 222 -13 112 136 l 112 958 l 258 958 l 258 385 b 470 128 258 220 309 128 b 684 387 631 128 684 221 l 684 958 l 829 958 l 829 376 b 470 -13 829 136 718 -13 "},"Ü":{"ha":941,"x_min":0,"x_max":0,"o":"m 278 1238 l 396 1238 l 396 1090 l 278 1090 m 539 1238 l 657 1238 l 657 1090 l 539 1090 m 470 -13 b 112 369 222 -13 112 136 l 112 958 l 258 958 l 258 385 b 470 128 258 220 309 128 b 684 387 631 128 684 221 l 684 958 l 829 958 l 829 376 b 470 -13 829 136 718 -13 "},"Ǘ":{"ha":941,"x_min":0,"x_max":0,"o":"m 551 1518 l 701 1518 l 504 1323 l 400 1323 m 278 1238 l 396 1238 l 396 1090 l 278 1090 m 539 1238 l 657 1238 l 657 1090 l 539 1090 m 470 -13 b 112 369 222 -13 112 136 l 112 958 l 258 958 l 258 385 b 470 128 258 220 309 128 b 684 387 631 128 684 221 l 684 958 l 829 958 l 829 376 b 470 -13 829 136 718 -13 "},"Ǚ":{"ha":941,"x_min":0,"x_max":0,"o":"m 257 1518 l 367 1518 l 468 1413 l 569 1518 l 680 1518 l 468 1299 m 278 1238 l 396 1238 l 396 1090 l 278 1090 m 539 1238 l 657 1238 l 657 1090 l 539 1090 m 470 -13 b 112 369 222 -13 112 136 l 112 958 l 258 958 l 258 385 b 470 128 258 220 309 128 b 684 387 631 128 684 221 l 684 958 l 829 958 l 829 376 b 470 -13 829 136 718 -13 "},"Ǜ":{"ha":941,"x_min":0,"x_max":0,"o":"m 229 1518 l 379 1518 l 522 1323 l 415 1323 m 278 1238 l 396 1238 l 396 1090 l 278 1090 m 539 1238 l 657 1238 l 657 1090 l 539 1090 m 470 -13 b 112 369 222 -13 112 136 l 112 958 l 258 958 l 258 385 b 470 128 258 220 309 128 b 684 387 631 128 684 221 l 684 958 l 829 958 l 829 376 b 470 -13 829 136 718 -13 "},"Ǖ":{"ha":941,"x_min":0,"x_max":0,"o":"m 280 1438 l 657 1438 l 657 1354 l 280 1354 m 278 1238 l 396 1238 l 396 1090 l 278 1090 m 539 1238 l 657 1238 l 657 1090 l 539 1090 m 470 -13 b 112 369 222 -13 112 136 l 112 958 l 258 958 l 258 385 b 470 128 258 220 309 128 b 684 387 631 128 684 221 l 684 958 l 829 958 l 829 376 b 470 -13 829 136 718 -13 "},"Ù":{"ha":941,"x_min":0,"x_max":0,"o":"m 229 1238 l 379 1238 l 522 1042 l 415 1042 m 470 -13 b 112 369 222 -13 112 136 l 112 958 l 258 958 l 258 385 b 470 128 258 220 309 128 b 684 387 631 128 684 221 l 684 958 l 829 958 l 829 376 b 470 -13 829 136 718 -13 "},"Ű":{"ha":941,"x_min":0,"x_max":0,"o":"m 420 1238 l 547 1238 l 372 1019 l 269 1019 m 673 1238 l 823 1238 l 625 1019 l 522 1019 m 470 -13 b 112 369 222 -13 112 136 l 112 958 l 258 958 l 258 385 b 470 128 258 220 309 128 b 684 387 631 128 684 221 l 684 958 l 829 958 l 829 376 b 470 -13 829 136 718 -13 "},"Ū":{"ha":941,"x_min":0,"x_max":0,"o":"m 280 1157 l 657 1157 l 657 1074 l 280 1074 m 470 -13 b 112 369 222 -13 112 136 l 112 958 l 258 958 l 258 385 b 470 128 258 220 309 128 b 684 387 631 128 684 221 l 684 958 l 829 958 l 829 376 b 470 -13 829 136 718 -13 "},"Ų":{"ha":941,"x_min":0,"x_max":0,"o":"m 829 958 l 829 376 b 610 7 829 187 760 54 b 513 -121 565 -20 513 -63 b 574 -188 513 -172 540 -188 b 654 -144 608 -188 633 -173 l 725 -193 b 577 -275 692 -242 646 -275 b 429 -140 491 -275 429 -221 b 487 -13 429 -85 457 -42 l 470 -13 b 112 369 222 -13 112 136 l 112 958 l 258 958 l 258 385 b 470 128 258 220 309 128 b 684 387 631 128 684 221 l 684 958 "},"Ů":{"ha":941,"x_min":0,"x_max":0,"o":"m 467 1010 b 319 1159 385 1010 319 1078 b 467 1306 319 1240 385 1306 b 616 1159 547 1306 616 1242 b 467 1010 616 1076 550 1010 m 467 1086 b 539 1160 509 1086 539 1118 b 467 1230 539 1200 511 1230 b 396 1160 425 1230 396 1200 b 467 1086 396 1118 427 1086 m 470 -13 b 112 369 222 -13 112 136 l 112 958 l 258 958 l 258 385 b 470 128 258 220 309 128 b 684 387 631 128 684 221 l 684 958 l 829 958 l 829 376 b 470 -13 829 136 718 -13 "},"Ũ":{"ha":941,"x_min":0,"x_max":0,"o":"m 558 1039 b 378 1144 449 1039 436 1144 b 325 1046 345 1144 325 1108 l 243 1046 b 382 1231 243 1164 297 1231 b 559 1127 481 1231 503 1127 b 608 1226 587 1127 608 1163 l 693 1226 b 558 1039 693 1107 641 1039 m 470 -13 b 112 369 222 -13 112 136 l 112 958 l 258 958 l 258 385 b 470 128 258 220 309 128 b 684 387 631 128 684 221 l 684 958 l 829 958 l 829 376 b 470 -13 829 136 718 -13 "},"V":{"ha":916,"x_min":0,"x_max":0,"o":"m 895 958 l 514 0 l 403 0 l 20 958 l 182 958 l 459 234 l 735 958 "},"W":{"ha":1353,"x_min":0,"x_max":0,"o":"m 29 958 l 181 958 l 395 213 l 619 904 l 734 904 l 958 213 l 1173 958 l 1324 958 l 1040 0 l 898 0 l 677 674 l 455 0 l 313 0 "},"Ẃ":{"ha":1353,"x_min":0,"x_max":0,"o":"m 760 1234 l 910 1234 l 713 1039 l 609 1039 m 29 958 l 181 958 l 395 213 l 619 904 l 734 904 l 958 213 l 1173 958 l 1324 958 l 1040 0 l 898 0 l 677 674 l 455 0 l 313 0 "},"Ŵ":{"ha":1353,"x_min":0,"x_max":0,"o":"m 676 1255 l 888 1024 l 778 1024 l 676 1135 l 576 1024 l 465 1024 m 29 958 l 181 958 l 395 213 l 619 904 l 734 904 l 958 213 l 1173 958 l 1324 958 l 1040 0 l 898 0 l 677 674 l 455 0 l 313 0 "},"Ẅ":{"ha":1353,"x_min":0,"x_max":0,"o":"m 487 1234 l 605 1234 l 605 1086 l 487 1086 m 748 1234 l 866 1234 l 866 1086 l 748 1086 m 29 958 l 181 958 l 395 213 l 619 904 l 734 904 l 958 213 l 1173 958 l 1324 958 l 1040 0 l 898 0 l 677 674 l 455 0 l 313 0 "},"Ẁ":{"ha":1353,"x_min":0,"x_max":0,"o":"m 438 1234 l 588 1234 l 731 1039 l 624 1039 m 29 958 l 181 958 l 395 213 l 619 904 l 734 904 l 958 213 l 1173 958 l 1324 958 l 1040 0 l 898 0 l 677 674 l 455 0 l 313 0 "},"X":{"ha":907,"x_min":0,"x_max":0,"o":"m 354 481 l 31 958 l 205 958 l 454 574 l 702 958 l 876 958 l 553 481 l 879 0 l 705 0 l 452 382 l 202 0 l 28 0 "},"Y":{"ha":897,"x_min":0,"x_max":0,"o":"m 373 371 l 12 958 l 188 958 l 447 511 l 707 958 l 885 958 l 524 371 l 524 0 l 373 0 "},"Ý":{"ha":897,"x_min":0,"x_max":0,"o":"m 530 1239 l 680 1239 l 482 1044 l 378 1044 m 373 371 l 12 958 l 188 958 l 447 511 l 707 958 l 885 958 l 524 371 l 524 0 l 373 0 "},"Ŷ":{"ha":897,"x_min":0,"x_max":0,"o":"m 446 1260 l 657 1029 l 547 1029 l 446 1140 l 345 1029 l 235 1029 m 373 371 l 12 958 l 188 958 l 447 511 l 707 958 l 885 958 l 524 371 l 524 0 l 373 0 "},"Ÿ":{"ha":897,"x_min":0,"x_max":0,"o":"m 256 1239 l 374 1239 l 374 1091 l 256 1091 m 517 1239 l 635 1239 l 635 1091 l 517 1091 m 373 371 l 12 958 l 188 958 l 447 511 l 707 958 l 885 958 l 524 371 l 524 0 l 373 0 "},"Ỳ":{"ha":897,"x_min":0,"x_max":0,"o":"m 208 1239 l 357 1239 l 500 1044 l 393 1044 m 373 371 l 12 958 l 188 958 l 447 511 l 707 958 l 885 958 l 524 371 l 524 0 l 373 0 "},"Ỹ":{"ha":897,"x_min":0,"x_max":0,"o":"m 536 1040 b 356 1145 427 1040 414 1145 b 303 1047 323 1145 303 1109 l 222 1047 b 360 1232 222 1166 275 1232 b 537 1128 459 1232 481 1128 b 587 1227 566 1128 587 1164 l 671 1227 b 536 1040 671 1109 619 1040 m 373 371 l 12 958 l 188 958 l 447 511 l 707 958 l 885 958 l 524 371 l 524 0 l 373 0 "},"Z":{"ha":870,"x_min":0,"x_max":0,"o":"m 814 850 l 250 132 l 813 132 l 813 0 l 47 0 l 47 103 l 614 824 l 79 824 l 79 958 l 814 958 "},"Ź":{"ha":870,"x_min":0,"x_max":0,"o":"m 467 1042 l 363 1042 l 515 1238 l 665 1238 m 814 850 l 250 132 l 813 132 l 813 0 l 47 0 l 47 103 l 614 824 l 79 824 l 79 958 l 814 958 "},"Ž":{"ha":870,"x_min":0,"x_max":0,"o":"m 431 1018 l 220 1238 l 330 1238 l 431 1133 l 532 1238 l 643 1238 m 814 850 l 250 132 l 813 132 l 813 0 l 47 0 l 47 103 l 614 824 l 79 824 l 79 958 l 814 958 "},"Ż":{"ha":870,"x_min":0,"x_max":0,"o":"m 505 1090 l 358 1090 l 358 1238 l 505 1238 m 814 850 l 250 132 l 813 132 l 813 0 l 47 0 l 47 103 l 614 824 l 79 824 l 79 958 l 814 958 "},"a":{"ha":721,"x_min":0,"x_max":0,"o":"m 349 690 b 635 412 530 690 635 579 l 635 0 l 519 0 l 509 106 b 287 -13 464 26 372 -13 b 45 204 148 -13 45 66 b 319 399 45 349 160 399 l 507 399 b 350 568 505 516 469 568 b 178 467 269 568 213 524 l 71 545 b 349 690 136 635 220 690 m 315 106 b 507 277 425 106 493 185 l 507 298 l 327 298 b 189 200 233 298 189 256 b 315 106 189 144 231 106 "},"á":{"ha":721,"x_min":0,"x_max":0,"o":"m 380 763 l 276 763 l 427 958 l 577 958 m 349 690 b 635 412 530 690 635 579 l 635 0 l 519 0 l 509 106 b 287 -13 464 26 372 -13 b 45 204 148 -13 45 66 b 319 399 45 349 160 399 l 507 399 b 350 568 505 516 469 568 b 178 467 269 568 213 524 l 71 545 b 349 690 136 635 220 690 m 315 106 b 507 277 425 106 493 185 l 507 298 l 327 298 b 189 200 233 298 189 256 b 315 106 189 144 231 106 "},"ă":{"ha":721,"x_min":0,"x_max":0,"o":"m 345 776 b 133 958 199 776 133 841 l 233 958 b 345 859 233 891 279 859 b 456 958 412 859 456 893 l 556 958 b 345 776 556 836 484 776 m 349 690 b 635 412 530 690 635 579 l 635 0 l 519 0 l 509 106 b 287 -13 464 26 372 -13 b 45 204 148 -13 45 66 b 319 399 45 349 160 399 l 507 399 b 350 568 505 516 469 568 b 178 467 269 568 213 524 l 71 545 b 349 690 136 635 220 690 m 315 106 b 507 277 425 106 493 185 l 507 298 l 327 298 b 189 200 233 298 189 256 b 315 106 189 144 231 106 "},"ắ":{"ha":721,"x_min":0,"x_max":0,"o":"m 380 1044 l 276 1044 l 427 1239 l 577 1239 m 345 776 b 133 958 199 776 133 841 l 233 958 b 345 859 233 891 279 859 b 456 958 412 859 456 893 l 556 958 b 345 776 556 836 484 776 m 349 690 b 635 412 530 690 635 579 l 635 0 l 519 0 l 509 106 b 287 -13 464 26 372 -13 b 45 204 148 -13 45 66 b 319 399 45 349 160 399 l 507 399 b 350 568 505 516 469 568 b 178 467 269 568 213 524 l 71 545 b 349 690 136 635 220 690 m 315 106 b 507 277 425 106 493 185 l 507 298 l 327 298 b 189 200 233 298 189 256 b 315 106 189 144 231 106 "},"ằ":{"ha":721,"x_min":0,"x_max":0,"o":"m 291 1044 l 105 1239 l 255 1239 l 398 1044 m 233 958 b 345 859 233 891 279 859 b 456 958 412 859 456 893 l 556 958 b 345 776 556 836 484 776 b 133 958 199 776 133 841 l 233 958 m 349 690 b 635 412 530 690 635 579 l 635 0 l 519 0 l 509 106 b 287 -13 464 26 372 -13 b 45 204 148 -13 45 66 b 319 399 45 349 160 399 l 507 399 b 350 568 505 516 469 568 b 178 467 269 568 213 524 l 71 545 b 349 690 136 635 220 690 m 315 106 b 507 277 425 106 493 185 l 507 298 l 327 298 b 189 200 233 298 189 256 b 315 106 189 144 231 106 "},"ẵ":{"ha":721,"x_min":0,"x_max":0,"o":"m 254 1145 b 201 1047 220 1145 201 1109 l 119 1047 b 258 1232 119 1166 173 1232 b 435 1128 357 1232 378 1128 b 484 1227 463 1128 484 1164 l 569 1227 b 434 1040 569 1109 517 1040 b 254 1145 325 1040 312 1145 m 345 859 b 456 958 412 859 456 893 l 556 958 b 345 776 556 836 484 776 b 133 958 199 776 133 841 l 233 958 b 345 859 233 891 279 859 m 349 690 b 635 412 530 690 635 579 l 635 0 l 519 0 l 509 106 b 287 -13 464 26 372 -13 b 45 204 148 -13 45 66 b 319 399 45 349 160 399 l 507 399 b 350 568 505 516 469 568 b 178 467 269 568 213 524 l 71 545 b 349 690 136 635 220 690 m 315 106 b 507 277 425 106 493 185 l 507 298 l 327 298 b 189 200 233 298 189 256 b 315 106 189 144 231 106 "},"ǎ":{"ha":721,"x_min":0,"x_max":0,"o":"m 344 739 l 133 958 l 243 958 l 344 853 l 445 958 l 555 958 m 349 690 b 635 412 530 690 635 579 l 635 0 l 519 0 l 509 106 b 287 -13 464 26 372 -13 b 45 204 148 -13 45 66 b 319 399 45 349 160 399 l 507 399 b 350 568 505 516 469 568 b 178 467 269 568 213 524 l 71 545 b 349 690 136 635 220 690 m 315 106 b 507 277 425 106 493 185 l 507 298 l 327 298 b 189 200 233 298 189 256 b 315 106 189 144 231 106 "},"â":{"ha":721,"x_min":0,"x_max":0,"o":"m 243 748 l 132 748 l 343 979 l 555 748 l 445 748 l 343 859 m 349 690 b 635 412 530 690 635 579 l 635 0 l 519 0 l 509 106 b 287 -13 464 26 372 -13 b 45 204 148 -13 45 66 b 319 399 45 349 160 399 l 507 399 b 350 568 505 516 469 568 b 178 467 269 568 213 524 l 71 545 b 349 690 136 635 220 690 m 315 106 b 507 277 425 106 493 185 l 507 298 l 327 298 b 189 200 233 298 189 256 b 315 106 189 144 231 106 "},"ấ":{"ha":721,"x_min":0,"x_max":0,"o":"m 380 1042 l 276 1042 l 427 1238 l 577 1238 m 243 748 l 132 748 l 343 979 l 555 748 l 445 748 l 343 859 m 349 690 b 635 412 530 690 635 579 l 635 0 l 519 0 l 509 106 b 287 -13 464 26 372 -13 b 45 204 148 -13 45 66 b 319 399 45 349 160 399 l 507 399 b 350 568 505 516 469 568 b 178 467 269 568 213 524 l 71 545 b 349 690 136 635 220 690 m 315 106 b 507 277 425 106 493 185 l 507 298 l 327 298 b 189 200 233 298 189 256 b 315 106 189 144 231 106 "},"ầ":{"ha":721,"x_min":0,"x_max":0,"o":"m 291 1042 l 105 1238 l 255 1238 l 398 1042 m 343 979 l 555 748 l 445 748 l 343 859 l 243 748 l 132 748 m 349 690 b 635 412 530 690 635 579 l 635 0 l 519 0 l 509 106 b 287 -13 464 26 372 -13 b 45 204 148 -13 45 66 b 319 399 45 349 160 399 l 507 399 b 350 568 505 516 469 568 b 178 467 269 568 213 524 l 71 545 b 349 690 136 635 220 690 m 315 106 b 507 277 425 106 493 185 l 507 298 l 327 298 b 189 200 233 298 189 256 b 315 106 189 144 231 106 "},"ẫ":{"ha":721,"x_min":0,"x_max":0,"o":"m 254 1144 b 201 1046 220 1144 201 1108 l 119 1046 b 258 1231 119 1164 173 1231 b 435 1127 357 1231 378 1127 b 484 1226 463 1127 484 1163 l 569 1226 b 434 1039 569 1107 517 1039 b 254 1144 325 1039 312 1144 m 343 979 l 555 748 l 445 748 l 343 859 l 243 748 l 132 748 m 349 690 b 635 412 530 690 635 579 l 635 0 l 519 0 l 509 106 b 287 -13 464 26 372 -13 b 45 204 148 -13 45 66 b 319 399 45 349 160 399 l 507 399 b 350 568 505 516 469 568 b 178 467 269 568 213 524 l 71 545 b 349 690 136 635 220 690 m 315 106 b 507 277 425 106 493 185 l 507 298 l 327 298 b 189 200 233 298 189 256 b 315 106 189 144 231 106 "},"ä":{"ha":721,"x_min":0,"x_max":0,"o":"m 272 810 l 154 810 l 154 958 l 272 958 m 533 810 l 415 810 l 415 958 l 533 958 m 349 690 b 635 412 530 690 635 579 l 635 0 l 519 0 l 509 106 b 287 -13 464 26 372 -13 b 45 204 148 -13 45 66 b 319 399 45 349 160 399 l 507 399 b 350 568 505 516 469 568 b 178 467 269 568 213 524 l 71 545 b 349 690 136 635 220 690 m 315 106 b 507 277 425 106 493 185 l 507 298 l 327 298 b 189 200 233 298 189 256 b 315 106 189 144 231 106 "},"à":{"ha":721,"x_min":0,"x_max":0,"o":"m 291 763 l 105 958 l 255 958 l 398 763 m 349 690 b 635 412 530 690 635 579 l 635 0 l 519 0 l 509 106 b 287 -13 464 26 372 -13 b 45 204 148 -13 45 66 b 319 399 45 349 160 399 l 507 399 b 350 568 505 516 469 568 b 178 467 269 568 213 524 l 71 545 b 349 690 136 635 220 690 m 315 106 b 507 277 425 106 493 185 l 507 298 l 327 298 b 189 200 233 298 189 256 b 315 106 189 144 231 106 "},"ā":{"ha":721,"x_min":0,"x_max":0,"o":"m 533 794 l 156 794 l 156 878 l 533 878 m 349 690 b 635 412 530 690 635 579 l 635 0 l 519 0 l 509 106 b 287 -13 464 26 372 -13 b 45 204 148 -13 45 66 b 319 399 45 349 160 399 l 507 399 b 350 568 505 516 469 568 b 178 467 269 568 213 524 l 71 545 b 349 690 136 635 220 690 m 315 106 b 507 277 425 106 493 185 l 507 298 l 327 298 b 189 200 233 298 189 256 b 315 106 189 144 231 106 "},"ą":{"ha":721,"x_min":0,"x_max":0,"o":"m 694 -224 b 547 -307 662 -274 615 -307 b 398 -172 460 -307 398 -253 b 522 0 398 -68 498 -8 l 519 0 l 509 106 b 287 -13 464 26 372 -13 b 45 204 148 -13 45 66 b 319 399 45 349 160 399 l 507 399 b 350 568 505 516 469 568 b 178 467 269 568 213 524 l 71 545 b 349 690 136 635 220 690 b 635 412 530 690 635 579 l 635 0 b 483 -153 601 -9 483 -66 b 543 -220 483 -204 509 -220 b 623 -176 577 -220 602 -205 m 315 106 b 507 277 425 106 493 185 l 507 298 l 327 298 b 189 200 233 298 189 256 b 315 106 189 144 231 106 "},"å":{"ha":721,"x_min":0,"x_max":0,"o":"m 343 731 b 195 880 260 731 195 799 b 343 1027 195 961 261 1027 b 492 880 423 1027 492 962 b 343 731 492 797 426 731 m 343 951 b 272 880 301 951 272 920 b 343 807 272 838 303 807 b 415 880 385 807 415 838 b 343 951 415 920 387 951 m 349 690 b 635 412 530 690 635 579 l 635 0 l 519 0 l 509 106 b 287 -13 464 26 372 -13 b 45 204 148 -13 45 66 b 319 399 45 349 160 399 l 507 399 b 350 568 505 516 469 568 b 178 467 269 568 213 524 l 71 545 b 349 690 136 635 220 690 m 315 106 b 507 277 425 106 493 185 l 507 298 l 327 298 b 189 200 233 298 189 256 b 315 106 189 144 231 106 "},"ã":{"ha":721,"x_min":0,"x_max":0,"o":"m 254 865 b 201 766 220 865 201 829 l 119 766 b 258 951 119 885 173 951 b 435 848 357 951 378 848 b 484 947 463 848 484 884 l 569 947 b 434 760 569 828 517 760 b 254 865 325 760 312 865 m 349 690 b 635 412 530 690 635 579 l 635 0 l 519 0 l 509 106 b 287 -13 464 26 372 -13 b 45 204 148 -13 45 66 b 319 399 45 349 160 399 l 507 399 b 350 568 505 516 469 568 b 178 467 269 568 213 524 l 71 545 b 349 690 136 635 220 690 m 315 106 b 507 277 425 106 493 185 l 507 298 l 327 298 b 189 200 233 298 189 256 b 315 106 189 144 231 106 "},"ɐ":{"ha":721,"x_min":0,"x_max":0,"o":"m 371 110 b 543 210 452 110 508 154 l 650 133 b 372 -13 585 43 500 -13 b 86 265 191 -13 86 98 l 86 677 l 202 677 l 212 572 b 434 690 257 651 349 690 b 676 473 573 690 676 611 b 402 278 676 329 561 278 l 214 278 b 371 110 216 161 252 110 m 406 571 b 214 401 296 571 228 492 l 214 380 l 394 380 b 532 477 488 380 532 422 b 406 571 532 533 490 571 "},"æ":{"ha":1152,"x_min":0,"x_max":0,"o":"m 276 -13 b 39 196 147 -13 39 68 b 315 397 39 345 155 397 l 501 397 b 496 452 501 418 499 436 b 340 569 483 532 434 569 b 168 476 264 569 204 528 l 68 549 b 345 688 136 642 221 688 b 578 555 454 688 538 640 b 804 686 627 634 700 686 b 1103 347 1031 686 1103 512 b 1097 295 1103 326 1098 296 l 635 295 b 803 117 642 190 693 117 b 982 191 880 117 930 137 l 1080 106 b 804 -8 1000 23 916 -8 b 556 121 684 -8 600 41 b 276 -13 498 46 425 -13 m 966 397 b 960 444 966 414 964 429 b 792 568 946 514 890 568 b 633 397 689 568 635 486 m 298 92 b 513 212 398 92 462 136 b 501 295 507 236 503 267 l 322 295 b 171 197 226 295 171 258 b 298 92 171 135 221 92 "},"b":{"ha":802,"x_min":0,"x_max":0,"o":"m 462 -13 b 252 96 379 -13 298 23 l 252 0 l 108 0 l 108 958 l 252 958 l 252 583 b 460 690 298 654 376 690 b 751 339 648 690 751 529 b 462 -13 751 150 648 -13 m 427 117 b 610 339 551 117 610 214 b 427 563 610 464 551 563 b 239 339 304 563 239 465 b 427 117 239 212 304 117 "},"c":{"ha":684,"x_min":0,"x_max":0,"o":"m 368 -13 b 48 338 156 -13 48 154 b 367 690 48 515 152 690 b 653 495 498 690 602 625 l 520 444 b 367 563 497 515 441 563 b 191 338 242 563 191 451 b 367 115 191 222 241 115 b 519 232 441 115 498 161 l 646 184 b 368 -13 602 60 500 -13 "},"ć":{"ha":684,"x_min":0,"x_max":0,"o":"m 450 958 l 600 958 l 402 763 l 298 763 m 368 -13 b 48 338 156 -13 48 154 b 367 690 48 515 152 690 b 653 495 498 690 602 625 l 520 444 b 367 563 497 515 441 563 b 191 338 242 563 191 451 b 367 115 191 222 241 115 b 519 232 441 115 498 161 l 646 184 b 368 -13 602 60 500 -13 "},"č":{"ha":684,"x_min":0,"x_max":0,"o":"m 155 958 l 265 958 l 366 853 l 467 958 l 578 958 l 366 739 m 368 -13 b 48 338 156 -13 48 154 b 367 690 48 515 152 690 b 653 495 498 690 602 625 l 520 444 b 367 563 497 515 441 563 b 191 338 242 563 191 451 b 367 115 191 222 241 115 b 519 232 441 115 498 161 l 646 184 b 368 -13 602 60 500 -13 "},"ç":{"ha":684,"x_min":0,"x_max":0,"o":"m 367 115 b 519 232 441 115 498 161 l 646 184 b 401 -12 606 71 517 0 l 356 -75 b 395 -83 370 -77 384 -79 b 496 -206 461 -101 496 -144 b 345 -353 496 -290 433 -353 b 213 -265 288 -353 235 -317 l 292 -232 b 349 -272 300 -255 323 -272 b 412 -211 387 -272 412 -248 b 296 -132 412 -165 367 -134 b 244 -131 281 -132 265 -131 l 319 -9 b 48 338 140 14 48 169 b 367 690 48 515 152 690 b 653 495 498 690 602 625 l 520 444 b 367 563 497 515 441 563 b 191 338 242 563 191 451 b 367 115 191 222 241 115 "},"ċ":{"ha":684,"x_min":0,"x_max":0,"o":"m 293 958 l 440 958 l 440 810 l 293 810 m 368 -13 b 48 338 156 -13 48 154 b 367 690 48 515 152 690 b 653 495 498 690 602 625 l 520 444 b 367 563 497 515 441 563 b 191 338 242 563 191 451 b 367 115 191 222 241 115 b 519 232 441 115 498 161 l 646 184 b 368 -13 602 60 500 -13 "},"d":{"ha":804,"x_min":0,"x_max":0,"o":"m 347 -13 b 51 339 159 -13 51 149 b 345 690 51 528 159 690 b 554 583 427 690 509 654 l 554 958 l 696 958 l 696 0 l 566 0 l 560 102 b 347 -13 514 26 433 -13 m 380 115 b 566 339 503 115 566 212 b 380 563 566 465 503 563 b 193 339 257 563 193 464 b 380 115 193 213 257 115 "},"ð":{"ha":793,"x_min":0,"x_max":0,"o":"m 382 -13 b 40 317 185 -13 40 142 b 380 635 40 500 195 635 b 432 622 399 635 417 630 l 349 753 l 302 701 l 226 701 l 317 804 l 217 958 l 372 958 l 408 904 l 454 958 l 530 958 l 444 860 l 672 480 b 722 313 705 427 722 376 b 382 -13 722 132 570 -13 m 380 124 b 580 317 490 124 580 210 b 380 509 580 422 490 509 b 182 317 272 509 182 422 b 380 124 182 210 272 124 "},"ď":{"ha":1198,"x_min":0,"x_max":0,"o":"m 347 -13 b 51 339 159 -13 51 149 b 345 690 51 528 159 690 b 554 583 427 690 509 654 l 554 958 l 696 958 l 696 0 l 566 0 l 560 102 b 347 -13 514 26 433 -13 m 981 958 l 1128 958 l 987 658 l 903 658 m 380 115 b 566 339 503 115 566 212 b 380 563 566 465 503 563 b 193 339 257 563 193 464 b 380 115 193 213 257 115 "},"đ":{"ha":804,"x_min":0,"x_max":0,"o":"m 786 780 l 696 780 l 696 0 l 566 0 l 560 102 b 347 -13 514 26 433 -13 b 51 339 159 -13 51 149 b 345 690 51 528 159 690 b 554 583 427 690 509 654 l 554 780 l 355 780 l 355 875 l 554 875 l 554 958 l 696 958 l 696 875 l 786 875 m 380 115 b 566 339 503 115 566 212 b 380 563 566 465 503 563 b 193 339 257 563 193 464 b 380 115 193 213 257 115 "},"ǳ":{"ha":1479,"x_min":0,"x_max":0,"o":"m 554 958 l 696 958 l 696 0 l 566 0 l 560 102 b 347 -13 514 26 433 -13 b 51 339 159 -13 51 149 b 345 690 51 528 159 690 b 554 583 427 690 509 654 m 1430 575 l 1036 118 l 1429 118 l 1429 0 l 844 0 l 844 95 l 1251 559 l 864 559 l 864 677 l 1430 677 m 380 115 b 566 339 503 115 566 212 b 380 563 566 465 503 563 b 193 339 257 563 193 464 b 380 115 193 213 257 115 "},"ǆ":{"ha":1479,"x_min":0,"x_max":0,"o":"m 554 958 l 696 958 l 696 0 l 566 0 l 560 102 b 347 -13 514 26 433 -13 b 51 339 159 -13 51 149 b 345 690 51 528 159 690 b 554 583 427 690 509 654 m 1136 739 l 925 958 l 1035 958 l 1136 853 l 1237 958 l 1348 958 m 1430 575 l 1036 118 l 1429 118 l 1429 0 l 844 0 l 844 95 l 1251 559 l 864 559 l 864 677 l 1430 677 m 380 115 b 566 339 503 115 566 212 b 380 563 566 465 503 563 b 193 339 257 563 193 464 b 380 115 193 213 257 115 "},"e":{"ha":726,"x_min":0,"x_max":0,"o":"m 382 -13 b 48 336 159 -13 48 150 b 371 690 48 517 153 690 b 678 358 604 690 678 504 b 673 295 678 332 675 304 l 196 295 b 383 115 208 185 267 115 b 558 191 451 115 506 135 l 654 106 b 382 -13 580 25 494 -13 m 540 397 b 536 439 541 412 539 426 b 370 572 522 516 463 572 b 196 397 264 572 210 498 "},"é":{"ha":726,"x_min":0,"x_max":0,"o":"m 442 958 l 592 958 l 395 763 l 291 763 m 382 -13 b 48 336 159 -13 48 150 b 371 690 48 517 153 690 b 678 358 604 690 678 504 b 673 295 678 332 675 304 l 196 295 b 383 115 208 185 267 115 b 558 191 451 115 506 135 l 654 106 b 382 -13 580 25 494 -13 m 540 397 b 536 439 541 412 539 426 b 370 572 522 516 463 572 b 196 397 264 572 210 498 "},"ě":{"ha":726,"x_min":0,"x_max":0,"o":"m 148 958 l 258 958 l 359 853 l 460 958 l 570 958 l 359 739 m 382 -13 b 48 336 159 -13 48 150 b 371 690 48 517 153 690 b 678 358 604 690 678 504 b 673 295 678 332 675 304 l 196 295 b 383 115 208 185 267 115 b 558 191 451 115 506 135 l 654 106 b 382 -13 580 25 494 -13 m 540 397 b 536 439 541 412 539 426 b 370 572 522 516 463 572 b 196 397 264 572 210 498 "},"ê":{"ha":726,"x_min":0,"x_max":0,"o":"m 358 979 l 570 748 l 460 748 l 358 859 l 258 748 l 147 748 m 382 -13 b 48 336 159 -13 48 150 b 371 690 48 517 153 690 b 678 358 604 690 678 504 b 673 295 678 332 675 304 l 196 295 b 383 115 208 185 267 115 b 558 191 451 115 506 135 l 654 106 b 382 -13 580 25 494 -13 m 540 397 b 536 439 541 412 539 426 b 370 572 522 516 463 572 b 196 397 264 572 210 498 "},"ế":{"ha":726,"x_min":0,"x_max":0,"o":"m 442 1238 l 592 1238 l 395 1042 l 291 1042 m 358 979 l 570 748 l 460 748 l 358 859 l 258 748 l 147 748 m 382 -13 b 48 336 159 -13 48 150 b 371 690 48 517 153 690 b 678 358 604 690 678 504 b 673 295 678 332 675 304 l 196 295 b 383 115 208 185 267 115 b 558 191 451 115 506 135 l 654 106 b 382 -13 580 25 494 -13 m 540 397 b 536 439 541 412 539 426 b 370 572 522 516 463 572 b 196 397 264 572 210 498 "},"ề":{"ha":726,"x_min":0,"x_max":0,"o":"m 120 1238 l 270 1238 l 413 1042 l 306 1042 m 358 979 l 570 748 l 460 748 l 358 859 l 258 748 l 147 748 m 382 -13 b 48 336 159 -13 48 150 b 371 690 48 517 153 690 b 678 358 604 690 678 504 b 673 295 678 332 675 304 l 196 295 b 383 115 208 185 267 115 b 558 191 451 115 506 135 l 654 106 b 382 -13 580 25 494 -13 m 540 397 b 536 439 541 412 539 426 b 370 572 522 516 463 572 b 196 397 264 572 210 498 "},"ễ":{"ha":726,"x_min":0,"x_max":0,"o":"m 449 1039 b 269 1144 340 1039 327 1144 b 216 1046 235 1144 216 1108 l 134 1046 b 273 1231 134 1164 188 1231 b 450 1127 372 1231 393 1127 b 499 1226 478 1127 499 1163 l 584 1226 b 449 1039 584 1107 532 1039 m 358 979 l 570 748 l 460 748 l 358 859 l 258 748 l 147 748 m 382 -13 b 48 336 159 -13 48 150 b 371 690 48 517 153 690 b 678 358 604 690 678 504 b 673 295 678 332 675 304 l 196 295 b 383 115 208 185 267 115 b 558 191 451 115 506 135 l 654 106 b 382 -13 580 25 494 -13 m 540 397 b 536 439 541 412 539 426 b 370 572 522 516 463 572 b 196 397 264 572 210 498 "},"ë":{"ha":726,"x_min":0,"x_max":0,"o":"m 169 958 l 287 958 l 287 810 l 169 810 m 430 958 l 548 958 l 548 810 l 430 810 m 382 -13 b 48 336 159 -13 48 150 b 371 690 48 517 153 690 b 678 358 604 690 678 504 b 673 295 678 332 675 304 l 196 295 b 383 115 208 185 267 115 b 558 191 451 115 506 135 l 654 106 b 382 -13 580 25 494 -13 m 540 397 b 536 439 541 412 539 426 b 370 572 522 516 463 572 b 196 397 264 572 210 498 "},"ė":{"ha":726,"x_min":0,"x_max":0,"o":"m 286 958 l 433 958 l 433 810 l 286 810 m 382 -13 b 48 336 159 -13 48 150 b 371 690 48 517 153 690 b 678 358 604 690 678 504 b 673 295 678 332 675 304 l 196 295 b 383 115 208 185 267 115 b 558 191 451 115 506 135 l 654 106 b 382 -13 580 25 494 -13 m 540 397 b 536 439 541 412 539 426 b 370 572 522 516 463 572 b 196 397 264 572 210 498 "},"è":{"ha":726,"x_min":0,"x_max":0,"o":"m 120 958 l 270 958 l 413 763 l 306 763 m 382 -13 b 48 336 159 -13 48 150 b 371 690 48 517 153 690 b 678 358 604 690 678 504 b 673 295 678 332 675 304 l 196 295 b 383 115 208 185 267 115 b 558 191 451 115 506 135 l 654 106 b 382 -13 580 25 494 -13 m 540 397 b 536 439 541 412 539 426 b 370 572 522 516 463 572 b 196 397 264 572 210 498 "},"ē":{"ha":726,"x_min":0,"x_max":0,"o":"m 171 878 l 548 878 l 548 794 l 171 794 m 382 -13 b 48 336 159 -13 48 150 b 371 690 48 517 153 690 b 678 358 604 690 678 504 b 673 295 678 332 675 304 l 196 295 b 383 115 208 185 267 115 b 558 191 451 115 506 135 l 654 106 b 382 -13 580 25 494 -13 m 540 397 b 536 439 541 412 539 426 b 370 572 522 516 463 572 b 196 397 264 572 210 498 "},"ę":{"ha":726,"x_min":0,"x_max":0,"o":"m 678 358 b 673 295 678 332 675 304 l 196 295 b 383 115 208 185 267 115 b 558 191 451 115 506 135 l 654 106 b 494 3 607 55 555 20 b 406 -121 452 -24 406 -66 b 466 -188 406 -172 432 -188 b 546 -144 500 -188 525 -173 l 617 -193 b 469 -275 585 -242 538 -275 b 321 -140 383 -275 321 -221 b 379 -13 321 -85 349 -42 b 48 336 157 -11 48 151 b 371 690 48 517 153 690 b 678 358 604 690 678 504 m 540 397 b 536 439 541 412 539 426 b 370 572 522 516 463 572 b 196 397 264 572 210 498 l 540 397 "},"ɘ":{"ha":726,"x_min":0,"x_max":0,"o":"m 344 -13 b 72 106 232 -13 146 25 l 168 191 b 343 115 220 135 275 115 b 530 295 460 115 518 185 l 54 295 b 48 358 51 304 48 332 b 355 690 48 504 123 690 b 678 336 574 690 678 517 b 344 -13 678 150 568 -13 m 530 397 b 357 572 516 498 463 572 b 191 439 263 572 204 516 b 186 397 187 426 186 412 l 530 397 "},"ẽ":{"ha":726,"x_min":0,"x_max":0,"o":"m 449 760 b 269 865 340 760 327 865 b 216 766 235 865 216 829 l 134 766 b 273 951 134 885 188 951 b 450 848 372 951 393 848 b 499 947 478 848 499 884 l 584 947 b 449 760 584 828 532 760 m 382 -13 b 48 336 159 -13 48 150 b 371 690 48 517 153 690 b 678 358 604 690 678 504 b 673 295 678 332 675 304 l 196 295 b 383 115 208 185 267 115 b 558 191 451 115 506 135 l 654 106 b 382 -13 580 25 494 -13 m 540 397 b 536 439 541 412 539 426 b 370 572 522 516 463 572 b 196 397 264 572 210 498 "},"ǝ":{"ha":726,"x_min":0,"x_max":0,"o":"m 344 690 b 678 342 568 690 678 528 b 355 -13 678 160 574 -13 b 48 319 123 -13 48 174 b 54 382 48 345 51 373 l 530 382 b 343 563 518 492 460 563 b 168 486 275 563 220 543 l 72 571 b 344 690 146 652 232 690 m 186 281 b 191 238 186 266 187 252 b 357 105 204 161 263 105 b 530 281 463 105 516 179 "},"ə":{"ha":726,"x_min":0,"x_max":0,"o":"m 344 690 b 678 342 568 690 678 528 b 355 -13 678 160 574 -13 b 48 319 123 -13 48 174 b 54 382 48 345 51 373 l 530 382 b 343 563 518 492 460 563 b 168 486 275 563 220 543 l 72 571 b 344 690 146 652 232 690 m 186 281 b 191 238 186 266 187 252 b 357 105 204 161 263 105 b 530 281 463 105 516 179 "},"f":{"ha":471,"x_min":0,"x_max":0,"o":"m 148 559 l 18 559 l 18 677 l 149 677 l 149 773 b 357 971 149 901 243 971 b 473 944 399 971 438 960 l 427 829 b 370 846 409 839 389 846 b 292 759 325 846 292 821 l 292 677 l 464 677 l 464 559 l 292 559 l 292 0 l 148 0 "},"g":{"ha":710,"x_min":0,"x_max":0,"o":"m 397 98 b 667 -98 528 79 667 54 b 373 -317 667 -244 540 -317 b 54 -80 166 -317 54 -218 b 57 -51 54 -66 56 -58 l 144 24 b 70 156 100 50 70 90 b 136 292 70 214 94 258 b 79 447 100 334 79 387 b 350 690 79 591 202 690 b 514 644 412 690 468 673 l 614 730 l 687 640 l 591 561 b 623 440 611 526 623 486 b 355 199 623 292 501 199 b 221 228 306 199 260 209 b 190 180 199 216 190 201 b 397 98 190 118 277 114 m 355 582 b 224 446 273 582 224 525 b 355 313 224 368 271 313 b 484 446 437 313 484 368 b 355 582 484 525 436 582 m 372 -209 b 534 -113 470 -209 534 -176 b 349 -24 534 -50 467 -37 b 230 -7 312 -20 270 -16 l 180 -79 b 183 -99 180 -87 182 -93 b 372 -209 199 -176 276 -209 "},"ğ":{"ha":710,"x_min":0,"x_max":0,"o":"m 354 776 b 142 958 209 776 142 841 l 242 958 b 354 859 242 891 289 859 b 466 958 422 859 466 893 l 566 958 b 354 776 566 836 494 776 m 397 98 b 667 -98 528 79 667 54 b 373 -317 667 -244 540 -317 b 54 -80 166 -317 54 -218 b 57 -51 54 -66 56 -58 l 144 24 b 70 156 100 50 70 90 b 136 292 70 214 94 258 b 79 447 100 334 79 387 b 350 690 79 591 202 690 b 514 644 412 690 468 673 l 614 730 l 687 640 l 591 561 b 623 440 611 526 623 486 b 355 199 623 292 501 199 b 221 228 306 199 260 209 b 190 180 199 216 190 201 b 397 98 190 118 277 114 m 355 582 b 224 446 273 582 224 525 b 355 313 224 368 271 313 b 484 446 437 313 484 368 b 355 582 484 525 436 582 m 372 -209 b 534 -113 470 -209 534 -176 b 349 -24 534 -50 467 -37 b 230 -7 312 -20 270 -16 l 180 -79 b 183 -99 180 -87 182 -93 b 372 -209 199 -176 276 -209 "},"ģ":{"ha":710,"x_min":0,"x_max":0,"o":"m 406 760 l 259 760 l 425 970 l 508 970 m 397 98 b 667 -98 528 79 667 54 b 373 -317 667 -244 540 -317 b 54 -80 166 -317 54 -218 b 57 -51 54 -66 56 -58 l 144 24 b 70 156 100 50 70 90 b 136 292 70 214 94 258 b 79 447 100 334 79 387 b 350 690 79 591 202 690 b 514 644 412 690 468 673 l 614 730 l 687 640 l 591 561 b 623 440 611 526 623 486 b 355 199 623 292 501 199 b 221 228 306 199 260 209 b 190 180 199 216 190 201 b 397 98 190 118 277 114 m 355 582 b 224 446 273 582 224 525 b 355 313 224 368 271 313 b 484 446 437 313 484 368 b 355 582 484 525 436 582 m 372 -209 b 534 -113 470 -209 534 -176 b 349 -24 534 -50 467 -37 b 230 -7 312 -20 270 -16 l 180 -79 b 183 -99 180 -87 182 -93 b 372 -209 199 -176 276 -209 "},"ġ":{"ha":710,"x_min":0,"x_max":0,"o":"m 427 810 l 280 810 l 280 958 l 427 958 m 397 98 b 667 -98 528 79 667 54 b 373 -317 667 -244 540 -317 b 54 -80 166 -317 54 -218 b 57 -51 54 -66 56 -58 l 144 24 b 70 156 100 50 70 90 b 136 292 70 214 94 258 b 79 447 100 334 79 387 b 350 690 79 591 202 690 b 514 644 412 690 468 673 l 614 730 l 687 640 l 591 561 b 623 440 611 526 623 486 b 355 199 623 292 501 199 b 221 228 306 199 260 209 b 190 180 199 216 190 201 b 397 98 190 118 277 114 m 355 582 b 224 446 273 582 224 525 b 355 313 224 368 271 313 b 484 446 437 313 484 368 b 355 582 484 525 436 582 m 372 -209 b 534 -113 470 -209 534 -176 b 349 -24 534 -50 467 -37 b 230 -7 312 -20 270 -16 l 180 -79 b 183 -99 180 -87 182 -93 b 372 -209 199 -176 276 -209 "},"ɡ":{"ha":795,"x_min":0,"x_max":0,"o":"m 372 -321 b 73 -168 225 -321 132 -257 l 180 -90 b 374 -199 210 -148 277 -199 b 547 7 481 -199 547 -136 l 547 107 b 340 -1 502 35 424 -1 b 44 345 152 -1 44 161 b 338 690 44 528 152 690 b 547 583 420 690 502 654 l 547 677 l 688 677 l 688 7 b 372 -321 688 -203 569 -321 m 374 128 b 559 345 496 128 559 223 b 374 563 559 465 496 563 b 186 345 250 563 186 464 b 374 128 186 224 250 128 "},"h":{"ha":784,"x_min":0,"x_max":0,"o":"m 108 958 l 250 958 l 250 587 b 451 690 300 659 376 690 b 696 414 622 690 695 557 l 696 0 l 554 0 l 554 393 b 417 563 554 490 524 563 b 250 357 307 563 250 475 l 250 0 l 108 0 "},"ħ":{"ha":784,"x_min":0,"x_max":0,"o":"m 451 690 b 696 414 622 690 695 557 l 696 0 l 554 0 l 554 393 b 417 563 554 490 524 563 b 250 357 307 563 250 475 l 250 0 l 108 0 l 108 759 l 0 759 l 0 854 l 108 854 l 108 958 l 250 958 l 250 854 l 431 854 l 431 759 l 250 759 l 250 587 b 451 690 300 659 376 690 "},"i":{"ha":353,"x_min":0,"x_max":0,"o":"m 103 958 l 250 958 l 250 810 l 103 810 m 106 677 l 246 677 l 246 0 l 106 0 "},"ı":{"ha":353,"x_min":0,"x_max":0,"o":"m 106 677 l 246 677 l 246 0 l 106 0 "},"í":{"ha":353,"x_min":0,"x_max":0,"o":"m 259 958 l 409 958 l 212 763 l 108 763 m 106 677 l 246 677 l 246 0 l 106 0 "},"ǐ":{"ha":353,"x_min":0,"x_max":0,"o":"m -35 958 l 75 958 l 176 853 l 277 958 l 387 958 l 176 739 m 106 677 l 246 677 l 246 0 l 106 0 "},"î":{"ha":353,"x_min":0,"x_max":0,"o":"m 175 979 l 387 748 l 277 748 l 175 859 l 75 748 l -36 748 m 106 677 l 246 677 l 246 0 l 106 0 "},"ï":{"ha":353,"x_min":0,"x_max":0,"o":"m -14 958 l 104 958 l 104 810 l -14 810 m 247 958 l 365 958 l 365 810 l 247 810 m 106 677 l 246 677 l 246 0 l 106 0 "},"ì":{"ha":353,"x_min":0,"x_max":0,"o":"m -63 958 l 87 958 l 230 763 l 123 763 m 106 677 l 246 677 l 246 0 l 106 0 "},"ī":{"ha":353,"x_min":0,"x_max":0,"o":"m -12 878 l 365 878 l 365 794 l -12 794 m 106 677 l 246 677 l 246 0 l 106 0 "},"į":{"ha":353,"x_min":0,"x_max":0,"o":"m 250 810 l 102 810 l 102 958 l 250 958 m 306 -224 b 158 -307 273 -274 227 -307 b 9 -172 72 -307 9 -253 b 134 0 9 -68 109 -8 l 106 0 l 106 677 l 246 677 l 246 0 b 94 -153 212 -9 94 -66 b 155 -220 94 -204 121 -220 b 235 -176 189 -220 214 -205 "},"ĩ":{"ha":353,"x_min":0,"x_max":0,"o":"m 266 760 b 85 865 157 760 144 865 b 33 766 52 865 33 829 l -49 766 b 90 951 -49 885 5 951 b 267 848 189 951 210 848 b 316 947 295 848 316 884 l 401 947 b 266 760 401 828 349 760 m 106 677 l 246 677 l 246 0 l 106 0 "},"j":{"ha":357,"x_min":0,"x_max":0,"o":"m 105 958 l 253 958 l 253 810 l 105 810 m 58 -296 b -57 -274 20 -296 -28 -286 l -21 -153 b 45 -169 3 -163 28 -169 b 109 -86 88 -169 109 -142 l 109 677 l 250 677 l 250 -76 b 58 -296 250 -200 191 -296 "},"ȷ":{"ha":357,"x_min":0,"x_max":0,"o":"m 58 -296 b -57 -274 20 -296 -28 -286 l -21 -153 b 45 -169 3 -163 28 -169 b 109 -86 88 -169 109 -142 l 109 677 l 250 677 l 250 -76 b 58 -296 250 -200 191 -296 "},"k":{"ha":752,"x_min":0,"x_max":0,"o":"m 108 958 l 248 958 l 248 367 l 534 677 l 717 677 l 465 418 l 749 0 l 583 0 l 370 332 l 248 199 l 248 0 l 108 0 "},"ķ":{"ha":752,"x_min":0,"x_max":0,"o":"m 108 958 l 248 958 l 248 367 l 534 677 l 717 677 l 465 418 l 749 0 l 583 0 l 370 332 l 248 199 l 248 0 l 108 0 m 354 -74 l 501 -74 l 335 -309 l 252 -309 "},"ĸ":{"ha":752,"x_min":0,"x_max":0,"o":"m 107 677 l 248 677 l 248 367 l 534 677 l 717 677 l 465 418 l 749 0 l 583 0 l 370 332 l 248 199 l 248 0 l 107 0 "},"l":{"ha":384,"x_min":0,"x_max":0,"o":"m 239 -13 b 102 138 155 -13 102 26 l 102 958 l 242 958 l 242 176 b 303 113 242 137 258 113 b 352 118 315 113 334 115 l 353 0 b 239 -13 319 -7 274 -13 "},"ĺ":{"ha":384,"x_min":0,"x_max":0,"o":"m 269 1238 l 418 1238 l 221 1042 l 117 1042 m 239 -13 b 102 138 155 -13 102 26 l 102 958 l 242 958 l 242 176 b 303 113 242 137 258 113 b 352 118 315 113 334 115 l 353 0 b 239 -13 319 -7 274 -13 "},"ľ":{"ha":778,"x_min":0,"x_max":0,"o":"m 239 -13 b 102 138 155 -13 102 26 l 102 958 l 242 958 l 242 176 b 303 113 242 137 258 113 b 352 118 315 113 334 115 l 353 0 b 239 -13 319 -7 274 -13 m 561 958 l 708 958 l 566 658 l 482 658 "},"ļ":{"ha":384,"x_min":0,"x_max":0,"o":"m 239 -13 b 102 138 155 -13 102 26 l 102 958 l 242 958 l 242 176 b 303 113 242 137 258 113 b 352 118 315 113 334 115 l 353 0 b 239 -13 319 -7 274 -13 m 182 -74 l 329 -74 l 163 -309 l 80 -309 "},"ǉ":{"ha":741,"x_min":0,"x_max":0,"o":"m 239 -13 b 102 138 155 -13 102 26 l 102 958 l 242 958 l 242 176 b 303 113 242 137 258 113 b 352 118 315 113 334 115 l 353 0 b 239 -13 319 -7 274 -13 m 489 958 l 637 958 l 637 810 l 489 810 m 442 -296 b 327 -274 404 -296 355 -286 l 363 -153 b 429 -169 387 -163 412 -169 b 492 -86 472 -169 492 -142 l 492 677 l 633 677 l 633 -76 b 442 -296 633 -200 574 -296 "},"ł":{"ha":387,"x_min":0,"x_max":0,"o":"m 354 0 b 240 -13 321 -7 275 -13 b 104 138 156 -13 104 26 l 104 294 l 43 233 l 43 366 l 104 427 l 104 958 l 243 958 l 243 566 l 349 670 l 349 538 l 243 433 l 243 176 b 304 113 243 137 260 113 b 353 118 316 113 335 115 "},"m":{"ha":1181,"x_min":0,"x_max":0,"o":"m 106 677 l 241 677 l 241 582 b 432 690 283 661 355 690 b 635 561 516 690 598 656 b 854 690 684 652 766 690 b 1094 404 1023 690 1094 557 l 1094 0 l 954 0 l 954 386 b 826 559 954 488 922 559 b 671 382 730 559 671 481 l 671 0 l 530 0 l 530 396 b 404 559 530 490 498 559 b 248 382 307 559 248 481 l 248 0 l 107 0 "},"n":{"ha":780,"x_min":0,"x_max":0,"o":"m 106 677 l 246 677 l 246 587 b 450 690 296 659 375 690 b 692 414 621 690 692 557 l 692 0 l 553 0 l 553 393 b 410 561 553 494 503 561 b 246 380 310 561 246 503 l 246 0 l 106 0 "},"ń":{"ha":780,"x_min":0,"x_max":0,"o":"m 477 958 l 627 958 l 429 763 l 326 763 m 106 677 l 246 677 l 246 587 b 450 690 296 659 375 690 b 692 414 621 690 692 557 l 692 0 l 553 0 l 553 393 b 410 561 553 494 503 561 b 246 380 310 561 246 503 l 246 0 l 106 0 "},"ň":{"ha":780,"x_min":0,"x_max":0,"o":"m 182 958 l 292 958 l 393 853 l 494 958 l 605 958 l 393 739 m 106 677 l 246 677 l 246 587 b 450 690 296 659 375 690 b 692 414 621 690 692 557 l 692 0 l 553 0 l 553 393 b 410 561 553 494 503 561 b 246 380 310 561 246 503 l 246 0 l 106 0 "},"ņ":{"ha":780,"x_min":0,"x_max":0,"o":"m 106 677 l 246 677 l 246 587 b 450 690 296 659 375 690 b 692 414 621 690 692 557 l 692 0 l 553 0 l 553 393 b 410 561 553 494 503 561 b 246 380 310 561 246 503 l 246 0 l 106 0 m 332 -74 l 479 -74 l 313 -309 l 231 -309 "},"ŋ":{"ha":817,"x_min":0,"x_max":0,"o":"m 495 -296 b 387 -275 458 -296 413 -284 l 419 -171 b 492 -182 443 -177 471 -182 b 553 -97 541 -182 553 -153 l 553 393 b 410 561 553 494 503 561 b 245 380 310 561 245 503 l 245 0 l 106 0 l 106 677 l 245 677 l 245 587 b 450 690 296 659 375 690 b 692 414 621 690 690 557 l 692 -81 b 495 -296 692 -203 629 -296 "},"ǌ":{"ha":1137,"x_min":0,"x_max":0,"o":"m 885 958 l 1033 958 l 1033 810 l 885 810 m 106 677 l 246 677 l 246 587 b 450 690 296 659 375 690 b 692 414 621 690 692 557 l 692 0 l 553 0 l 553 393 b 410 561 553 494 503 561 b 246 380 310 561 246 503 l 246 0 l 106 0 m 838 -296 b 723 -274 800 -296 751 -286 l 759 -153 b 825 -169 783 -163 808 -169 b 888 -86 868 -169 888 -142 l 888 677 l 1029 677 l 1029 -76 b 838 -296 1029 -200 970 -296 "},"ñ":{"ha":780,"x_min":0,"x_max":0,"o":"m 484 760 b 303 865 374 760 361 865 b 250 766 270 865 250 829 l 169 766 b 307 951 169 885 222 951 b 484 848 406 951 428 848 b 534 947 513 848 534 884 l 618 947 b 484 760 618 828 566 760 m 106 677 l 246 677 l 246 587 b 450 690 296 659 375 690 b 692 414 621 690 692 557 l 692 0 l 553 0 l 553 393 b 410 561 553 494 503 561 b 246 380 310 561 246 503 l 246 0 l 106 0 "},"o":{"ha":770,"x_min":0,"x_max":0,"o":"m 385 -13 b 44 340 180 -13 44 147 b 385 690 44 532 180 690 b 726 340 589 690 726 532 b 385 -13 726 148 589 -13 m 385 109 b 580 340 517 109 580 216 b 385 569 580 464 517 569 b 190 340 252 569 190 465 b 385 109 190 216 252 109 "},"ó":{"ha":770,"x_min":0,"x_max":0,"o":"m 467 958 l 617 958 l 420 763 l 316 763 m 385 -13 b 44 340 180 -13 44 147 b 385 690 44 532 180 690 b 726 340 589 690 726 532 b 385 -13 726 148 589 -13 m 385 109 b 580 340 517 109 580 216 b 385 569 580 464 517 569 b 190 340 252 569 190 465 b 385 109 190 216 252 109 "},"ǒ":{"ha":770,"x_min":0,"x_max":0,"o":"m 173 958 l 283 958 l 384 853 l 485 958 l 595 958 l 384 739 m 385 -13 b 44 340 180 -13 44 147 b 385 690 44 532 180 690 b 726 340 589 690 726 532 b 385 -13 726 148 589 -13 m 385 109 b 580 340 517 109 580 216 b 385 569 580 464 517 569 b 190 340 252 569 190 465 b 385 109 190 216 252 109 "},"ô":{"ha":770,"x_min":0,"x_max":0,"o":"m 383 979 l 595 748 l 485 748 l 383 859 l 283 748 l 172 748 m 385 -13 b 44 340 180 -13 44 147 b 385 690 44 532 180 690 b 726 340 589 690 726 532 b 385 -13 726 148 589 -13 m 385 109 b 580 340 517 109 580 216 b 385 569 580 464 517 569 b 190 340 252 569 190 465 b 385 109 190 216 252 109 "},"ố":{"ha":770,"x_min":0,"x_max":0,"o":"m 467 1238 l 617 1238 l 420 1042 l 316 1042 m 383 979 l 595 748 l 485 748 l 383 859 l 283 748 l 172 748 m 385 -13 b 44 340 180 -13 44 147 b 385 690 44 532 180 690 b 726 340 589 690 726 532 b 385 -13 726 148 589 -13 m 385 109 b 580 340 517 109 580 216 b 385 569 580 464 517 569 b 190 340 252 569 190 465 b 385 109 190 216 252 109 "},"ồ":{"ha":770,"x_min":0,"x_max":0,"o":"m 145 1238 l 295 1238 l 438 1042 l 331 1042 m 383 979 l 595 748 l 485 748 l 383 859 l 283 748 l 172 748 m 385 -13 b 44 340 180 -13 44 147 b 385 690 44 532 180 690 b 726 340 589 690 726 532 b 385 -13 726 148 589 -13 m 385 109 b 580 340 517 109 580 216 b 385 569 580 464 517 569 b 190 340 252 569 190 465 b 385 109 190 216 252 109 "},"ỗ":{"ha":770,"x_min":0,"x_max":0,"o":"m 474 1039 b 294 1144 365 1039 352 1144 b 241 1046 260 1144 241 1108 l 159 1046 b 298 1231 159 1164 213 1231 b 475 1127 397 1231 418 1127 b 524 1226 503 1127 524 1163 l 609 1226 b 474 1039 609 1107 557 1039 m 383 979 l 595 748 l 485 748 l 383 859 l 283 748 l 172 748 m 385 -13 b 44 340 180 -13 44 147 b 385 690 44 532 180 690 b 726 340 589 690 726 532 b 385 -13 726 148 589 -13 m 385 109 b 580 340 517 109 580 216 b 385 569 580 464 517 569 b 190 340 252 569 190 465 b 385 109 190 216 252 109 "},"ö":{"ha":770,"x_min":0,"x_max":0,"o":"m 194 958 l 312 958 l 312 810 l 194 810 m 455 958 l 573 958 l 573 810 l 455 810 m 385 -13 b 44 340 180 -13 44 147 b 385 690 44 532 180 690 b 726 340 589 690 726 532 b 385 -13 726 148 589 -13 m 385 109 b 580 340 517 109 580 216 b 385 569 580 464 517 569 b 190 340 252 569 190 465 b 385 109 190 216 252 109 "},"ò":{"ha":770,"x_min":0,"x_max":0,"o":"m 145 958 l 295 958 l 438 763 l 331 763 m 385 -13 b 44 340 180 -13 44 147 b 385 690 44 532 180 690 b 726 340 589 690 726 532 b 385 -13 726 148 589 -13 m 385 109 b 580 340 517 109 580 216 b 385 569 580 464 517 569 b 190 340 252 569 190 465 b 385 109 190 216 252 109 "},"ő":{"ha":770,"x_min":0,"x_max":0,"o":"m 336 958 l 463 958 l 288 740 l 184 740 m 589 958 l 739 958 l 541 740 l 438 740 m 385 -13 b 44 340 180 -13 44 147 b 385 690 44 532 180 690 b 726 340 589 690 726 532 b 385 -13 726 148 589 -13 m 385 109 b 580 340 517 109 580 216 b 385 569 580 464 517 569 b 190 340 252 569 190 465 b 385 109 190 216 252 109 "},"ō":{"ha":770,"x_min":0,"x_max":0,"o":"m 196 878 l 573 878 l 573 794 l 196 794 m 385 -13 b 44 340 180 -13 44 147 b 385 690 44 532 180 690 b 726 340 589 690 726 532 b 385 -13 726 148 589 -13 m 385 109 b 580 340 517 109 580 216 b 385 569 580 464 517 569 b 190 340 252 569 190 465 b 385 109 190 216 252 109 "},"ǫ":{"ha":770,"x_min":0,"x_max":0,"o":"m 461 -5 b 323 -153 417 -22 323 -75 b 384 -220 323 -204 350 -220 b 464 -176 418 -220 443 -205 l 535 -224 b 387 -307 503 -274 456 -307 b 239 -172 301 -307 239 -253 b 341 -10 239 -88 303 -33 b 44 340 161 10 44 161 b 385 690 44 532 180 690 b 726 340 589 690 726 532 b 461 -5 726 173 623 30 m 190 340 b 385 109 190 216 252 109 b 580 340 517 109 580 216 b 385 569 580 464 517 569 b 190 340 252 569 190 465 "},"ɔ":{"ha":684,"x_min":0,"x_max":0,"o":"m 315 -13 b 37 184 184 -13 81 60 l 165 232 b 317 115 186 161 243 115 b 493 338 442 115 493 222 b 317 563 493 451 441 563 b 163 444 243 563 186 515 l 31 495 b 317 690 81 625 186 690 b 635 338 532 690 635 515 b 315 -13 635 154 528 -13 "},"ø":{"ha":770,"x_min":0,"x_max":0,"o":"m 594 621 b 726 340 677 557 726 455 b 385 -13 726 148 589 -13 b 229 23 326 -13 274 0 l 214 0 l 140 0 l 175 57 b 44 340 92 122 44 225 b 385 690 44 532 180 690 b 540 655 442 690 494 677 l 554 678 l 629 678 l 594 621 m 190 340 b 243 170 190 274 208 213 l 475 549 b 385 569 450 562 419 569 b 190 340 252 569 190 465 m 385 109 b 580 340 517 109 580 216 b 526 509 580 406 562 467 l 294 130 b 385 109 319 116 349 109 "},"ǿ":{"ha":770,"x_min":0,"x_max":0,"o":"m 420 763 l 316 763 l 467 958 l 617 958 m 594 621 b 726 340 677 557 726 455 b 385 -13 726 148 589 -13 b 229 23 326 -13 274 0 l 214 0 l 140 0 l 175 57 b 44 340 92 122 44 225 b 385 690 44 532 180 690 b 540 655 442 690 494 677 l 554 678 l 629 678 l 594 621 m 190 340 b 243 170 190 274 208 213 l 475 549 b 385 569 450 562 419 569 b 190 340 252 569 190 465 m 385 109 b 580 340 517 109 580 216 b 526 509 580 406 562 467 l 294 130 b 385 109 319 116 349 109 "},"õ":{"ha":770,"x_min":0,"x_max":0,"o":"m 474 760 b 294 865 365 760 352 865 b 241 766 260 865 241 829 l 159 766 b 298 951 159 885 213 951 b 475 848 397 951 418 848 b 524 947 503 848 524 884 l 609 947 b 474 760 609 828 557 760 m 385 -13 b 44 340 180 -13 44 147 b 385 690 44 532 180 690 b 726 340 589 690 726 532 b 385 -13 726 148 589 -13 m 385 109 b 580 340 517 109 580 216 b 385 569 580 464 517 569 b 190 340 252 569 190 465 b 385 109 190 216 252 109 "},"œ":{"ha":1258,"x_min":0,"x_max":0,"o":"m 1210 358 b 1204 295 1210 332 1207 304 l 728 295 b 915 115 740 185 798 115 b 1090 191 983 115 1038 135 l 1186 106 b 914 -13 1112 25 1026 -13 b 648 111 791 -13 703 36 b 385 -13 588 35 496 -13 b 44 340 180 -13 44 147 b 385 690 44 532 180 690 b 649 568 497 690 589 642 b 903 690 702 641 786 690 b 1210 358 1135 690 1210 504 m 1072 397 b 1067 439 1072 412 1071 426 b 901 572 1054 516 995 572 b 728 397 795 572 742 498 l 1072 397 m 385 109 b 580 340 517 109 580 216 b 385 569 580 464 517 569 b 190 340 252 569 190 465 b 385 109 190 216 252 109 "},"p":{"ha":802,"x_min":0,"x_max":0,"o":"m 108 677 l 252 677 l 252 583 b 462 690 298 654 379 690 b 751 338 648 690 751 528 b 460 -13 751 149 648 -13 b 252 95 376 -13 298 23 l 252 -281 l 108 -281 m 427 115 b 610 338 551 115 610 214 b 427 561 610 464 551 561 b 239 338 304 561 239 465 b 427 115 239 212 304 115 "},"þ":{"ha":802,"x_min":0,"x_max":0,"o":"m 462 690 b 751 338 648 690 751 528 b 460 -13 751 149 648 -13 b 252 95 376 -13 298 23 l 252 -281 l 108 -281 l 108 958 l 252 958 l 252 583 b 462 690 298 654 379 690 m 427 561 b 239 338 304 561 239 465 b 427 115 239 212 304 115 b 610 338 551 115 610 214 b 427 561 610 464 551 561 "},"q":{"ha":802,"x_min":0,"x_max":0,"o":"m 550 -281 l 550 95 b 342 -13 505 23 427 -13 b 51 338 155 -13 51 149 b 340 690 51 528 155 690 b 550 583 423 690 505 654 l 550 677 l 694 677 l 694 -281 m 375 115 b 563 338 498 115 563 212 b 375 561 563 465 498 561 b 193 338 252 561 193 464 b 375 115 193 214 252 115 "},"r":{"ha":548,"x_min":0,"x_max":0,"o":"m 106 677 l 243 677 l 243 554 b 434 690 273 644 356 690 b 551 647 476 690 520 677 l 488 532 b 413 554 465 546 439 554 b 241 306 331 554 241 482 l 241 0 l 106 0 "},"ŕ":{"ha":548,"x_min":0,"x_max":0,"o":"m 388 958 l 538 958 l 340 763 l 237 763 m 106 677 l 243 677 l 243 554 b 434 690 273 644 356 690 b 551 647 476 690 520 677 l 488 532 b 413 554 465 546 439 554 b 241 306 331 554 241 482 l 241 0 l 106 0 "},"ř":{"ha":548,"x_min":0,"x_max":0,"o":"m 94 958 l 203 958 l 304 853 l 406 958 l 516 958 l 304 739 m 106 677 l 243 677 l 243 554 b 434 690 273 644 356 690 b 551 647 476 690 520 677 l 488 532 b 413 554 465 546 439 554 b 241 306 331 554 241 482 l 241 0 l 106 0 "},"ŗ":{"ha":548,"x_min":0,"x_max":0,"o":"m 106 677 l 243 677 l 243 554 b 434 690 273 644 356 690 b 551 647 476 690 520 677 l 488 532 b 413 554 465 546 439 554 b 241 306 331 554 241 482 l 241 0 l 106 0 m 212 -74 l 359 -74 l 193 -309 l 111 -309 "},"s":{"ha":621,"x_min":0,"x_max":0,"o":"m 309 -13 b 28 174 170 -13 62 70 l 140 223 b 302 104 161 167 208 104 b 428 199 387 104 428 152 b 70 488 428 336 70 247 b 315 690 70 623 184 690 b 566 545 428 690 515 636 l 457 486 b 310 579 431 534 387 579 b 204 506 245 579 204 548 b 566 206 204 382 566 458 b 309 -13 566 56 439 -13 "},"ś":{"ha":621,"x_min":0,"x_max":0,"o":"m 379 958 l 529 958 l 332 763 l 228 763 m 309 -13 b 28 174 170 -13 62 70 l 140 223 b 302 104 161 167 208 104 b 428 199 387 104 428 152 b 70 488 428 336 70 247 b 315 690 70 623 184 690 b 566 545 428 690 515 636 l 457 486 b 310 579 431 534 387 579 b 204 506 245 579 204 548 b 566 206 204 382 566 458 b 309 -13 566 56 439 -13 "},"š":{"ha":621,"x_min":0,"x_max":0,"o":"m 85 958 l 195 958 l 296 853 l 397 958 l 507 958 l 296 739 m 309 -13 b 28 174 170 -13 62 70 l 140 223 b 302 104 161 167 208 104 b 428 199 387 104 428 152 b 70 488 428 336 70 247 b 315 690 70 623 184 690 b 566 545 428 690 515 636 l 457 486 b 310 579 431 534 387 579 b 204 506 245 579 204 548 b 566 206 204 382 566 458 b 309 -13 566 56 439 -13 "},"ş":{"ha":621,"x_min":0,"x_max":0,"o":"m 204 506 b 566 206 204 382 566 458 b 372 -7 566 81 477 12 l 323 -75 b 363 -83 338 -77 351 -79 b 463 -206 429 -101 463 -144 b 313 -353 463 -290 400 -353 b 180 -265 256 -353 202 -317 l 259 -232 b 316 -272 267 -255 290 -272 b 380 -211 355 -272 380 -248 b 263 -132 380 -165 334 -134 b 212 -131 249 -132 233 -131 l 286 -12 b 28 174 157 -3 60 76 l 140 223 b 302 104 161 167 208 104 b 428 199 387 104 428 152 b 70 488 428 336 70 247 b 315 690 70 623 184 690 b 566 545 428 690 515 636 l 457 486 b 310 579 431 534 387 579 b 204 506 245 579 204 548 "},"ș":{"ha":621,"x_min":0,"x_max":0,"o":"m 309 -13 b 28 174 170 -13 62 70 l 140 223 b 302 104 161 167 208 104 b 428 199 387 104 428 152 b 70 488 428 336 70 247 b 315 690 70 623 184 690 b 566 545 428 690 515 636 l 457 486 b 310 579 431 534 387 579 b 204 506 245 579 204 548 b 566 206 204 382 566 458 b 309 -13 566 56 439 -13 m 273 -74 l 420 -74 l 254 -309 l 171 -309 "},"ß":{"ha":808,"x_min":0,"x_max":0,"o":"m 494 -12 b 347 18 443 -12 393 0 l 395 137 b 490 116 429 123 463 116 b 602 215 560 116 602 157 b 399 518 602 334 399 370 b 548 736 399 647 548 636 b 403 850 548 796 498 850 b 246 669 297 850 246 784 l 246 0 l 107 0 l 107 669 b 395 971 107 865 237 971 b 687 726 543 971 687 876 b 529 512 687 571 529 574 b 743 216 529 441 743 404 b 494 -12 743 81 636 -12 "},"t":{"ha":500,"x_min":0,"x_max":0,"o":"m 334 -13 b 132 189 206 -13 132 63 l 132 559 l 21 559 l 21 677 l 134 677 l 134 855 l 272 956 l 272 677 l 448 677 l 448 559 l 272 559 l 272 212 b 359 111 272 137 306 111 b 448 133 392 111 427 123 l 448 6 b 334 -13 425 -3 380 -13 "},"ŧ":{"ha":500,"x_min":0,"x_max":0,"o":"m 272 292 l 272 212 b 359 111 272 137 306 111 b 448 133 392 111 427 123 l 448 6 b 334 -13 425 -3 380 -13 b 132 189 206 -13 132 63 l 132 292 l 24 292 l 24 387 l 132 387 l 132 559 l 21 559 l 21 677 l 134 677 l 134 855 l 272 956 l 272 677 l 448 677 l 448 559 l 272 559 l 272 387 l 454 387 l 454 292 "},"ť":{"ha":894,"x_min":0,"x_max":0,"o":"m 677 958 l 824 958 l 682 658 l 598 658 m 334 -13 b 132 189 206 -13 132 63 l 132 559 l 21 559 l 21 677 l 134 677 l 134 855 l 272 956 l 272 677 l 448 677 l 448 559 l 272 559 l 272 212 b 359 111 272 137 306 111 b 448 133 392 111 427 123 l 448 6 b 334 -13 425 -3 380 -13 "},"ţ":{"ha":500,"x_min":0,"x_max":0,"o":"m 360 -83 b 460 -206 426 -101 460 -144 b 310 -353 460 -290 397 -353 b 178 -265 253 -353 199 -317 l 256 -232 b 313 -272 264 -255 288 -272 b 377 -211 352 -272 377 -248 b 260 -132 377 -165 332 -134 b 209 -131 246 -132 230 -131 l 285 -9 b 132 189 187 9 132 80 l 132 559 l 21 559 l 21 677 l 134 677 l 134 855 l 272 956 l 272 677 l 448 677 l 448 559 l 272 559 l 272 212 b 359 111 272 137 306 111 b 448 133 392 111 427 123 l 448 6 b 366 -12 430 -1 399 -8 l 321 -75 b 360 -83 335 -77 349 -79 "},"ț":{"ha":500,"x_min":0,"x_max":0,"o":"m 334 -13 b 132 189 206 -13 132 63 l 132 559 l 21 559 l 21 677 l 134 677 l 134 855 l 272 956 l 272 677 l 448 677 l 448 559 l 272 559 l 272 212 b 359 111 272 137 306 111 b 448 133 392 111 427 123 l 448 6 b 334 -13 425 -3 380 -13 m 270 -74 l 417 -74 l 251 -309 l 168 -309 "},"u":{"ha":779,"x_min":0,"x_max":0,"o":"m 330 -13 b 87 263 158 -13 88 120 l 87 677 l 227 677 l 227 284 b 369 117 227 184 275 117 b 534 297 469 117 534 174 l 534 677 l 673 677 l 673 0 l 534 0 l 534 91 b 330 -13 484 19 404 -13 "},"ú":{"ha":779,"x_min":0,"x_max":0,"o":"m 472 958 l 622 958 l 425 763 l 321 763 m 330 -13 b 87 263 158 -13 88 120 l 87 677 l 227 677 l 227 284 b 369 117 227 184 275 117 b 534 297 469 117 534 174 l 534 677 l 673 677 l 673 0 l 534 0 l 534 91 b 330 -13 484 19 404 -13 "},"ǔ":{"ha":779,"x_min":0,"x_max":0,"o":"m 178 958 l 288 958 l 389 853 l 490 958 l 600 958 l 389 739 m 330 -13 b 87 263 158 -13 88 120 l 87 677 l 227 677 l 227 284 b 369 117 227 184 275 117 b 534 297 469 117 534 174 l 534 677 l 673 677 l 673 0 l 534 0 l 534 91 b 330 -13 484 19 404 -13 "},"û":{"ha":779,"x_min":0,"x_max":0,"o":"m 388 979 l 600 748 l 490 748 l 388 859 l 288 748 l 177 748 m 330 -13 b 87 263 158 -13 88 120 l 87 677 l 227 677 l 227 284 b 369 117 227 184 275 117 b 534 297 469 117 534 174 l 534 677 l 673 677 l 673 0 l 534 0 l 534 91 b 330 -13 484 19 404 -13 "},"ü":{"ha":779,"x_min":0,"x_max":0,"o":"m 199 958 l 317 958 l 317 810 l 199 810 m 460 958 l 578 958 l 578 810 l 460 810 m 330 -13 b 87 263 158 -13 88 120 l 87 677 l 227 677 l 227 284 b 369 117 227 184 275 117 b 534 297 469 117 534 174 l 534 677 l 673 677 l 673 0 l 534 0 l 534 91 b 330 -13 484 19 404 -13 "},"ǘ":{"ha":779,"x_min":0,"x_max":0,"o":"m 472 1239 l 622 1239 l 425 1044 l 321 1044 m 199 958 l 317 958 l 317 810 l 199 810 m 460 958 l 578 958 l 578 810 l 460 810 m 330 -13 b 87 263 158 -13 88 120 l 87 677 l 227 677 l 227 284 b 369 117 227 184 275 117 b 534 297 469 117 534 174 l 534 677 l 673 677 l 673 0 l 534 0 l 534 91 b 330 -13 484 19 404 -13 "},"ǚ":{"ha":779,"x_min":0,"x_max":0,"o":"m 178 1239 l 288 1239 l 389 1134 l 490 1239 l 600 1239 l 389 1019 m 199 958 l 317 958 l 317 810 l 199 810 m 460 958 l 578 958 l 578 810 l 460 810 m 330 -13 b 87 263 158 -13 88 120 l 87 677 l 227 677 l 227 284 b 369 117 227 184 275 117 b 534 297 469 117 534 174 l 534 677 l 673 677 l 673 0 l 534 0 l 534 91 b 330 -13 484 19 404 -13 "},"ǜ":{"ha":779,"x_min":0,"x_max":0,"o":"m 150 1239 l 300 1239 l 443 1044 l 336 1044 m 199 958 l 317 958 l 317 810 l 199 810 m 460 958 l 578 958 l 578 810 l 460 810 m 330 -13 b 87 263 158 -13 88 120 l 87 677 l 227 677 l 227 284 b 369 117 227 184 275 117 b 534 297 469 117 534 174 l 534 677 l 673 677 l 673 0 l 534 0 l 534 91 b 330 -13 484 19 404 -13 "},"ǖ":{"ha":779,"x_min":0,"x_max":0,"o":"m 201 1158 l 578 1158 l 578 1075 l 201 1075 m 199 958 l 317 958 l 317 810 l 199 810 m 460 958 l 578 958 l 578 810 l 460 810 m 330 -13 b 87 263 158 -13 88 120 l 87 677 l 227 677 l 227 284 b 369 117 227 184 275 117 b 534 297 469 117 534 174 l 534 677 l 673 677 l 673 0 l 534 0 l 534 91 b 330 -13 484 19 404 -13 "},"ù":{"ha":779,"x_min":0,"x_max":0,"o":"m 150 958 l 300 958 l 443 763 l 336 763 m 330 -13 b 87 263 158 -13 88 120 l 87 677 l 227 677 l 227 284 b 369 117 227 184 275 117 b 534 297 469 117 534 174 l 534 677 l 673 677 l 673 0 l 534 0 l 534 91 b 330 -13 484 19 404 -13 "},"ű":{"ha":779,"x_min":0,"x_max":0,"o":"m 340 958 l 467 958 l 293 740 l 189 740 m 593 958 l 743 958 l 546 740 l 443 740 m 330 -13 b 87 263 158 -13 88 120 l 87 677 l 227 677 l 227 284 b 369 117 227 184 275 117 b 534 297 469 117 534 174 l 534 677 l 673 677 l 673 0 l 534 0 l 534 91 b 330 -13 484 19 404 -13 "},"ū":{"ha":779,"x_min":0,"x_max":0,"o":"m 201 878 l 578 878 l 578 794 l 201 794 m 330 -13 b 87 263 158 -13 88 120 l 87 677 l 227 677 l 227 284 b 369 117 227 184 275 117 b 534 297 469 117 534 174 l 534 677 l 673 677 l 673 0 l 534 0 l 534 91 b 330 -13 484 19 404 -13 "},"ų":{"ha":779,"x_min":0,"x_max":0,"o":"m 732 -224 b 585 -307 700 -274 653 -307 b 436 -172 498 -307 436 -253 b 560 0 436 -68 536 -8 l 534 0 l 534 91 b 330 -13 484 19 404 -13 b 87 263 158 -13 88 120 l 87 677 l 227 677 l 227 284 b 369 117 227 184 275 117 b 534 297 469 117 534 174 l 534 677 l 673 677 l 673 0 b 521 -153 639 -9 521 -66 b 581 -220 521 -204 547 -220 b 661 -176 615 -220 640 -205 "},"ů":{"ha":779,"x_min":0,"x_max":0,"o":"m 388 731 b 240 880 305 731 240 799 b 388 1027 240 961 306 1027 b 536 880 468 1027 536 962 b 388 731 536 797 471 731 m 388 807 b 460 880 430 807 460 838 b 388 951 460 920 432 951 b 317 880 346 951 317 920 b 388 807 317 838 348 807 m 330 -13 b 87 263 158 -13 88 120 l 87 677 l 227 677 l 227 284 b 369 117 227 184 275 117 b 534 297 469 117 534 174 l 534 677 l 673 677 l 673 0 l 534 0 l 534 91 b 330 -13 484 19 404 -13 "},"ũ":{"ha":779,"x_min":0,"x_max":0,"o":"m 479 760 b 298 865 370 760 357 865 b 245 766 265 865 245 829 l 164 766 b 302 951 164 885 218 951 b 479 848 401 951 423 848 b 529 947 508 848 529 884 l 614 947 b 479 760 614 828 562 760 m 330 -13 b 87 263 158 -13 88 120 l 87 677 l 227 677 l 227 284 b 369 117 227 184 275 117 b 534 297 469 117 534 174 l 534 677 l 673 677 l 673 0 l 534 0 l 534 91 b 330 -13 484 19 404 -13 "},"v":{"ha":678,"x_min":0,"x_max":0,"o":"m 4 677 l 157 677 l 339 180 l 522 677 l 674 677 l 397 0 l 281 0 "},"w":{"ha":999,"x_min":0,"x_max":0,"o":"m 17 677 l 166 677 l 293 214 l 439 677 l 560 677 l 706 214 l 833 677 l 983 677 l 777 0 l 650 0 l 500 481 l 349 0 l 222 0 "},"ẃ":{"ha":999,"x_min":0,"x_max":0,"o":"m 584 958 l 734 958 l 536 763 l 433 763 m 17 677 l 166 677 l 293 214 l 439 677 l 560 677 l 706 214 l 833 677 l 983 677 l 777 0 l 650 0 l 500 481 l 349 0 l 222 0 "},"ŵ":{"ha":999,"x_min":0,"x_max":0,"o":"m 500 979 l 711 748 l 602 748 l 500 859 l 399 748 l 289 748 m 17 677 l 166 677 l 293 214 l 439 677 l 560 677 l 706 214 l 833 677 l 983 677 l 777 0 l 650 0 l 500 481 l 349 0 l 222 0 "},"ẅ":{"ha":999,"x_min":0,"x_max":0,"o":"m 311 958 l 429 958 l 429 810 l 311 810 m 572 958 l 690 958 l 690 810 l 572 810 m 17 677 l 166 677 l 293 214 l 439 677 l 560 677 l 706 214 l 833 677 l 983 677 l 777 0 l 650 0 l 500 481 l 349 0 l 222 0 "},"ẁ":{"ha":999,"x_min":0,"x_max":0,"o":"m 262 958 l 412 958 l 555 763 l 448 763 m 17 677 l 166 677 l 293 214 l 439 677 l 560 677 l 706 214 l 833 677 l 983 677 l 777 0 l 650 0 l 500 481 l 349 0 l 222 0 "},"x":{"ha":693,"x_min":0,"x_max":0,"o":"m 253 341 l 16 677 l 186 677 l 346 437 l 505 677 l 677 677 l 439 341 l 677 0 l 505 0 l 346 244 l 186 0 l 16 0 "},"y":{"ha":697,"x_min":0,"x_max":0,"o":"m 278 15 l 5 677 l 159 677 l 353 176 l 538 677 l 692 677 l 309 -291 l 156 -291 "},"ý":{"ha":697,"x_min":0,"x_max":0,"o":"m 431 958 l 581 958 l 383 763 l 279 763 m 278 15 l 5 677 l 159 677 l 353 176 l 538 677 l 692 677 l 309 -291 l 156 -291 "},"ŷ":{"ha":697,"x_min":0,"x_max":0,"o":"m 347 979 l 558 748 l 448 748 l 347 859 l 246 748 l 136 748 m 278 15 l 5 677 l 159 677 l 353 176 l 538 677 l 692 677 l 309 -291 l 156 -291 "},"ÿ":{"ha":697,"x_min":0,"x_max":0,"o":"m 157 958 l 275 958 l 275 810 l 157 810 m 418 958 l 536 958 l 536 810 l 418 810 m 278 15 l 5 677 l 159 677 l 353 176 l 538 677 l 692 677 l 309 -291 l 156 -291 "},"ỳ":{"ha":697,"x_min":0,"x_max":0,"o":"m 109 958 l 258 958 l 401 763 l 294 763 m 278 15 l 5 677 l 159 677 l 353 176 l 538 677 l 692 677 l 309 -291 l 156 -291 "},"ỹ":{"ha":697,"x_min":0,"x_max":0,"o":"m 437 760 b 257 865 328 760 315 865 b 204 766 224 865 204 829 l 123 766 b 261 951 123 885 176 951 b 438 848 360 951 382 848 b 488 947 467 848 488 884 l 572 947 b 437 760 572 828 520 760 m 278 15 l 5 677 l 159 677 l 353 176 l 538 677 l 692 677 l 309 -291 l 156 -291 "},"z":{"ha":675,"x_min":0,"x_max":0,"o":"m 625 575 l 232 118 l 625 118 l 625 0 l 39 0 l 39 95 l 446 559 l 60 559 l 60 677 l 625 677 "},"ź":{"ha":675,"x_min":0,"x_max":0,"o":"m 368 763 l 264 763 l 415 958 l 565 958 m 625 575 l 232 118 l 625 118 l 625 0 l 39 0 l 39 95 l 446 559 l 60 559 l 60 677 l 625 677 "},"ž":{"ha":675,"x_min":0,"x_max":0,"o":"m 332 739 l 121 958 l 231 958 l 332 853 l 433 958 l 543 958 m 625 575 l 232 118 l 625 118 l 625 0 l 39 0 l 39 95 l 446 559 l 60 559 l 60 677 l 625 677 "},"ż":{"ha":675,"x_min":0,"x_max":0,"o":"m 406 810 l 258 810 l 258 958 l 406 958 m 625 575 l 232 118 l 625 118 l 625 0 l 39 0 l 39 95 l 446 559 l 60 559 l 60 677 l 625 677 "},"ﬁ":{"ha":749,"x_min":0,"x_max":0,"o":"m 644 0 l 514 0 l 514 559 l 271 559 l 271 0 l 132 0 l 132 559 l 18 559 l 18 677 l 132 677 l 132 729 b 401 971 132 886 256 971 b 646 903 506 971 578 947 l 580 804 b 408 858 532 838 477 858 b 271 726 317 858 271 810 l 271 677 l 644 677 "},"ﬂ":{"ha":810,"x_min":0,"x_max":0,"o":"m 665 -13 b 528 138 581 -13 528 26 l 528 829 b 404 858 492 848 452 858 b 270 726 314 858 270 810 l 270 677 l 412 677 l 411 559 l 270 559 l 270 0 l 130 0 l 130 559 l 18 559 l 18 677 l 130 677 l 130 729 b 397 971 130 886 253 971 b 668 901 501 971 559 958 l 668 176 b 729 113 668 137 684 113 b 778 118 741 113 760 115 l 779 0 b 665 -13 745 -7 700 -13 "},"ª":{"ha":667,"x_min":0,"x_max":0,"o":"m 279 479 b 113 626 189 479 113 536 b 305 772 113 729 193 772 l 439 772 b 435 806 439 785 438 797 b 323 893 427 863 392 893 b 195 818 263 893 224 859 l 127 865 b 326 971 182 940 239 971 b 522 779 450 971 522 895 l 522 489 l 445 489 l 443 557 b 279 479 400 505 347 479 m 294 559 b 427 644 353 559 402 593 b 439 696 433 660 438 678 l 311 696 b 204 626 243 696 204 671 b 294 559 204 588 247 559 "},"º":{"ha":677,"x_min":0,"x_max":0,"o":"m 339 483 b 99 728 197 483 99 593 b 339 971 99 861 197 971 b 577 728 479 971 577 861 b 339 483 577 593 479 483 m 339 568 b 480 728 435 568 480 638 b 339 888 480 817 435 888 b 197 728 241 888 197 817 b 339 568 197 638 241 568 "},"ǃ":{"ha":398,"x_min":0,"x_max":0,"o":"m 130 958 l 269 958 l 252 283 l 146 283 m 123 169 l 275 169 l 275 0 l 123 0 "},"μ":{"ha":879,"x_min":0,"x_max":0,"o":"m 160 677 l 299 677 l 299 284 b 441 117 299 184 348 117 b 606 297 542 117 606 174 l 606 677 l 745 677 l 745 0 l 606 0 l 606 91 b 402 -13 556 19 476 -13 b 273 31 347 -13 304 3 l 273 -227 l 160 -227 "},"π":{"ha":696,"x_min":0,"x_max":0,"o":"m 582 -13 b 425 207 482 -13 425 69 l 425 559 l 239 559 l 239 0 l 121 0 l 121 559 l 60 559 l 60 677 l 605 677 l 605 559 l 543 559 l 543 225 b 591 92 543 123 564 92 b 626 102 600 92 612 94 l 663 9 b 582 -13 638 -6 610 -13 "},"⁄":{"ha":213,"x_min":0,"x_max":0,"o":"m 339 958 l 439 958 l -126 0 l -226 0 "},".":{"ha":434,"x_min":0,"x_max":0,"o":"m 146 170 l 288 170 l 288 0 l 146 0 "},",":{"ha":435,"x_min":0,"x_max":0,"o":"m 205 179 l 366 179 l 191 -208 l 97 -208 "},":":{"ha":452,"x_min":0,"x_max":0,"o":"m 150 647 l 302 647 l 302 478 l 150 478 m 150 170 l 302 170 l 302 0 l 150 0 "},";":{"ha":450,"x_min":0,"x_max":0,"o":"m 181 647 l 334 647 l 334 478 l 181 478 m 182 179 l 343 179 l 168 -208 l 74 -208 "},"…":{"ha":996,"x_min":0,"x_max":0,"o":"m 146 170 l 288 170 l 288 0 l 146 0 m 427 170 l 568 170 l 568 0 l 427 0 m 707 170 l 849 170 l 849 0 l 707 0 "},"!":{"ha":429,"x_min":0,"x_max":0,"o":"m 145 958 l 283 958 l 268 283 l 161 283 m 138 170 l 291 170 l 291 0 l 138 0 "},"¡":{"ha":429,"x_min":0,"x_max":0,"o":"m 291 958 l 291 789 l 138 789 l 138 958 m 268 675 l 283 0 l 145 0 l 161 675 "},"?":{"ha":689,"x_min":0,"x_max":0,"o":"m 279 384 b 511 709 279 602 511 538 b 338 854 511 808 443 854 b 167 682 222 854 168 791 l 43 682 b 333 971 43 865 159 971 b 634 707 498 971 634 880 b 399 383 634 460 399 490 l 399 281 l 279 281 m 264 170 l 417 170 l 417 0 l 264 0 "},"¿":{"ha":689,"x_min":0,"x_max":0,"o":"m 425 789 l 272 789 l 272 958 l 425 958 m 410 574 b 178 250 410 357 178 420 b 351 104 178 151 246 104 b 522 276 467 104 522 167 l 646 276 b 356 -13 646 94 530 -13 b 55 252 191 -13 55 79 b 290 575 55 498 290 468 l 290 677 l 410 677 "},"·":{"ha":433,"x_min":0,"x_max":0,"o":"m 216 402 b 119 500 161 402 119 446 b 216 597 119 554 162 597 b 314 500 270 597 314 555 b 216 402 314 446 271 402 "},"•":{"ha":535,"x_min":0,"x_max":0,"o":"m 268 165 b 106 326 179 165 106 237 b 268 488 106 415 179 488 b 429 326 357 488 429 415 b 268 165 429 237 357 165 "},"*":{"ha":619,"x_min":0,"x_max":0,"o":"m 135 632 l 245 747 l 87 768 l 125 874 l 271 814 l 250 958 l 370 958 l 349 814 l 495 874 l 532 768 l 374 747 l 484 632 l 386 568 l 309 715 l 233 568 "},"#":{"ha":946,"x_min":0,"x_max":0,"o":"m 223 284 l 62 284 l 62 384 l 244 384 l 288 590 l 119 590 l 119 694 l 309 694 l 370 958 l 481 958 l 421 689 l 614 689 l 671 958 l 783 958 l 722 689 l 885 689 l 885 590 l 701 590 l 656 384 l 829 384 l 829 284 l 635 284 l 575 0 l 465 0 l 525 284 l 332 284 l 273 0 l 163 0 m 549 384 l 591 590 l 397 590 l 355 384 "},"/":{"ha":604,"x_min":0,"x_max":0,"o":"m 485 958 l 616 958 l 119 -291 l -13 -291 "},"\\":{"ha":628,"x_min":0,"x_max":0,"o":"m -14 1027 l 117 1027 l 642 -291 l 511 -291 "},"‥":{"ha":715,"x_min":0,"x_max":0,"o":"m 146 170 l 288 170 l 288 0 l 146 0 m 427 170 l 568 170 l 568 0 l 427 0 "},"‣":{"ha":616,"x_min":0,"x_max":0,"o":"m 149 600 l 570 355 l 149 111 "},"(":{"ha":387,"x_min":0,"x_max":0,"o":"m 241 -71 b 77 479 138 39 77 283 b 239 1027 77 723 140 913 l 366 1027 b 189 477 242 874 189 687 b 365 -71 189 243 247 81 l 241 -71 "},")":{"ha":387,"x_min":0,"x_max":0,"o":"m 22 -71 b 199 477 140 81 199 243 b 21 1027 199 687 145 874 l 148 1027 b 310 479 247 913 310 723 b 146 -71 310 283 249 39 "},"{":{"ha":421,"x_min":0,"x_max":0,"o":"m 281 -102 b 133 83 182 -102 133 -29 l 133 298 b 47 406 133 374 88 391 l 47 501 b 133 613 89 515 133 533 l 133 835 b 283 1019 133 951 186 1019 l 378 1019 l 378 927 l 330 927 b 252 832 271 927 252 888 l 252 610 b 160 458 252 522 216 481 l 160 450 b 252 300 216 425 252 385 l 252 85 b 328 -10 252 31 273 -10 l 378 -10 l 378 -102 l 281 -102 "},"}":{"ha":421,"x_min":0,"x_max":0,"o":"m 43 -102 l 43 -10 l 93 -10 b 169 85 149 -10 169 31 l 169 300 b 261 450 169 385 205 425 l 261 458 b 169 610 205 481 169 522 l 169 832 b 91 927 169 888 150 927 l 43 927 l 43 1019 l 138 1019 b 288 835 235 1019 288 951 l 288 613 b 374 501 288 533 332 515 l 374 406 b 288 298 333 391 288 374 l 288 83 b 140 -102 288 -29 239 -102 "},"[":{"ha":439,"x_min":0,"x_max":0,"o":"m 128 1058 l 408 1058 l 408 964 l 242 964 l 242 -7 l 408 -7 l 408 -102 l 128 -102 "},"]":{"ha":439,"x_min":0,"x_max":0,"o":"m 31 -102 l 31 -7 l 197 -7 l 197 964 l 31 964 l 31 1058 l 311 1058 l 311 -102 "},"-":{"ha":591,"x_min":0,"x_max":0,"o":"m 102 465 l 488 465 l 488 359 l 102 359 "},"­":{"ha":688,"x_min":0,"x_max":0,"o":"m 102 465 l 585 465 l 585 359 l 102 359 "},"–":{"ha":715,"x_min":0,"x_max":0,"o":"m 102 465 l 613 465 l 613 359 l 102 359 "},"—":{"ha":1434,"x_min":0,"x_max":0,"o":"m 22 465 l 1411 465 l 1411 359 l 22 359 "},"_":{"ha":855,"x_min":0,"x_max":0,"o":"m 144 0 l 711 0 l 711 -106 l 144 -106 "},"―":{"ha":1049,"x_min":0,"x_max":0,"o":"m 102 465 l 947 465 l 947 359 l 102 359 "},"‚":{"ha":378,"x_min":0,"x_max":0,"o":"m 202 179 l 363 179 l 188 -208 l 94 -208 "},"„":{"ha":656,"x_min":0,"x_max":0,"o":"m 186 179 l 347 179 l 172 -208 l 77 -208 m 450 179 l 610 179 l 435 -208 l 341 -208 "},"“":{"ha":645,"x_min":0,"x_max":0,"o":"m 222 572 l 47 959 l 208 959 l 317 572 m 475 572 l 300 959 l 460 959 l 569 572 "},"”":{"ha":645,"x_min":0,"x_max":0,"o":"m 184 959 l 345 959 l 170 572 l 76 572 m 437 959 l 597 959 l 422 572 l 328 572 "},"‘":{"ha":393,"x_min":0,"x_max":0,"o":"m 222 572 l 47 959 l 208 959 l 317 572 "},"’":{"ha":393,"x_min":0,"x_max":0,"o":"m 184 959 l 345 959 l 170 572 l 76 572 "},"«":{"ha":689,"x_min":0,"x_max":0,"o":"m 26 346 l 309 585 l 309 462 l 169 346 l 309 231 l 309 109 m 307 346 l 590 585 l 590 462 l 450 346 l 590 231 l 590 109 "},"»":{"ha":689,"x_min":0,"x_max":0,"o":"m 99 231 l 239 346 l 99 462 l 99 585 l 382 346 l 99 109 m 380 231 l 520 346 l 380 462 l 380 585 l 663 346 l 380 109 "},"‹":{"ha":408,"x_min":0,"x_max":0,"o":"m 25 346 l 309 585 l 309 462 l 169 346 l 309 231 l 309 109 "},"›":{"ha":408,"x_min":0,"x_max":0,"o":"m 99 231 l 239 346 l 99 462 l 99 585 l 382 346 l 99 109 "},"\"":{"ha":644,"x_min":0,"x_max":0,"o":"m 148 958 l 267 958 l 267 604 l 148 604 m 378 958 l 496 958 l 496 604 l 378 604 "},"'":{"ha":414,"x_min":0,"x_max":0,"o":"m 148 958 l 266 958 l 266 624 l 148 624 "}," ":{"ha":341,"x_min":0,"x_max":0,"o":""}," ":{"ha":382,"x_min":0,"x_max":0,"o":""},"¢":{"ha":772,"x_min":0,"x_max":0,"o":"m 364 -9 b 90 338 183 12 90 168 b 364 688 90 503 179 665 l 364 814 l 436 814 l 436 689 b 694 495 553 681 647 616 l 562 444 b 436 559 541 505 496 550 l 436 118 b 560 232 496 127 541 171 l 688 184 b 436 -12 646 68 554 -2 l 436 -143 l 364 -144 m 364 556 b 232 338 271 534 232 437 b 364 121 232 237 272 143 "},"¤":{"ha":928,"x_min":0,"x_max":0,"o":"m 135 176 l 205 245 b 205 611 125 353 127 504 l 136 680 l 210 758 l 281 686 b 647 687 390 766 540 767 l 718 757 l 793 682 l 723 612 b 723 244 802 504 802 353 l 793 176 l 719 98 l 647 170 b 280 170 540 90 389 90 l 210 98 m 312 279 b 614 279 397 194 530 194 b 614 578 696 362 697 496 b 313 577 530 661 397 661 b 312 279 232 494 231 360 "},"$":{"ha":774,"x_min":0,"x_max":0,"o":"m 723 274 b 432 -9 723 111 596 4 l 432 -176 l 372 -178 l 372 -9 b 42 265 214 -1 71 92 l 186 302 b 372 121 200 189 275 130 l 372 441 b 104 713 244 491 104 546 b 372 970 104 869 224 962 l 372 1125 l 432 1125 l 432 969 b 677 808 534 959 621 908 l 557 733 b 432 837 528 789 484 824 l 432 564 b 723 274 566 512 723 457 m 250 721 b 372 589 250 656 302 619 l 372 841 b 250 721 301 834 250 787 m 432 121 b 577 261 524 132 577 189 b 432 416 577 340 513 381 l 432 121 "},"€":{"ha":877,"x_min":0,"x_max":0,"o":"m 543 -13 b 195 316 346 -13 235 130 l 78 316 l 124 420 l 181 420 b 179 479 179 441 179 460 b 181 546 179 502 180 526 l 78 546 l 124 654 l 196 654 b 542 972 239 837 349 972 b 806 836 650 972 742 924 l 716 764 b 542 846 675 821 612 846 b 322 654 420 846 348 766 l 675 654 l 629 549 l 304 549 b 300 488 302 528 300 510 b 303 425 300 467 302 444 l 675 425 l 629 321 l 322 321 b 543 113 348 196 420 113 b 713 195 614 113 671 138 l 798 112 b 543 -13 734 31 645 -13 "},"ƒ":{"ha":658,"x_min":0,"x_max":0,"o":"m 64 -193 b 245 2 199 -193 245 -148 l 245 572 l 126 572 l 126 677 l 245 677 l 245 764 b 441 979 245 890 332 979 b 604 911 503 979 551 956 l 527 821 b 441 861 494 850 474 861 b 364 764 401 861 364 832 l 364 677 l 529 677 l 529 572 l 364 572 l 364 -9 b 64 -300 364 -212 258 -300 "},"£":{"ha":830,"x_min":0,"x_max":0,"o":"m 805 118 l 805 0 l 102 0 l 102 123 b 275 311 194 157 275 233 b 250 426 275 348 261 392 l 105 426 l 105 544 l 221 544 b 196 699 210 575 196 635 b 483 977 196 853 300 977 b 755 769 617 977 713 884 l 645 728 b 483 859 614 810 557 859 b 314 696 378 859 314 802 b 343 544 314 642 328 582 l 665 544 l 665 426 l 370 426 b 391 314 380 395 391 355 b 292 118 391 220 347 157 "},"₱":{"ha":926,"x_min":0,"x_max":0,"o":"m 868 653 l 804 653 b 471 405 791 493 657 405 l 328 405 l 328 0 l 183 0 l 183 653 l 99 653 l 99 713 l 183 713 l 183 958 l 471 958 b 802 713 653 958 785 869 l 868 713 m 328 713 l 656 713 b 471 822 642 783 582 822 l 328 822 m 471 541 b 658 653 588 541 647 580 l 328 653 l 328 541 l 471 541 "},"₳":{"ha":1110,"x_min":0,"x_max":0,"o":"m 195 181 l 108 181 l 108 307 l 245 307 l 286 412 l 108 412 l 108 538 l 336 538 l 500 958 l 612 958 l 775 538 l 1002 538 l 1002 412 l 825 412 l 865 307 l 1002 307 l 1002 181 l 915 181 l 985 0 l 827 0 l 762 181 l 350 181 l 284 0 l 125 0 m 631 538 l 556 746 l 481 538 m 715 307 l 677 412 l 435 412 l 397 307 "},"₴":{"ha":993,"x_min":0,"x_max":0,"o":"m 895 650 l 895 548 l 98 548 l 98 650 l 616 650 b 643 721 633 669 643 692 b 504 842 643 791 583 842 b 336 733 432 842 372 804 l 214 808 b 499 971 278 921 382 971 b 789 713 656 971 789 876 b 779 650 789 690 785 669 m 98 462 l 895 462 l 895 360 l 368 360 b 315 255 336 334 315 302 b 499 119 315 170 392 119 b 700 268 599 119 675 171 l 843 235 b 490 -10 802 71 653 -10 b 170 238 313 -10 170 87 b 213 360 170 292 189 332 l 98 360 "},"₸":{"ha":951,"x_min":0,"x_max":0,"o":"m 92 958 l 860 958 l 860 839 l 92 839 m 403 608 l 92 608 l 92 728 l 860 728 l 860 608 l 549 608 l 549 0 l 403 0 "},"₽":{"ha":924,"x_min":0,"x_max":0,"o":"m 224 190 l 102 190 l 102 303 l 224 303 l 224 416 l 102 416 l 102 541 l 224 541 l 224 958 l 512 958 b 845 679 707 958 845 857 b 512 416 845 503 707 416 l 369 416 l 369 303 l 593 303 l 593 190 l 369 190 l 369 0 l 224 0 m 512 541 b 701 679 642 541 701 589 b 512 822 701 770 640 822 l 369 822 l 369 541 "},"¥":{"ha":975,"x_min":0,"x_max":0,"o":"m 412 146 l 187 146 l 187 260 l 412 260 l 412 365 l 187 365 l 187 478 l 346 478 l 50 958 l 227 958 l 486 511 l 746 958 l 924 958 l 629 478 l 785 478 l 785 365 l 564 365 l 564 260 l 785 260 l 785 146 l 564 146 l 564 0 l 412 0 "},"+":{"ha":827,"x_min":0,"x_max":0,"o":"m 360 370 l 64 370 l 64 477 l 360 477 l 360 774 l 467 774 l 467 477 l 764 477 l 764 370 l 467 370 l 467 74 l 360 74 "},"−":{"ha":850,"x_min":0,"x_max":0,"o":"m 156 479 l 694 479 l 694 373 l 156 373 "},"×":{"ha":736,"x_min":0,"x_max":0,"o":"m 368 342 l 158 132 l 83 208 l 292 417 l 83 627 l 158 702 l 368 492 l 578 702 l 653 627 l 443 417 l 652 208 l 577 132 "},"÷":{"ha":686,"x_min":0,"x_max":0,"o":"m 266 744 l 418 744 l 418 575 l 266 575 m 67 479 l 616 479 l 616 373 l 67 373 m 266 267 l 418 267 l 418 97 l 266 97 "},"=":{"ha":872,"x_min":0,"x_max":0,"o":"m 160 661 l 712 661 l 712 542 l 160 542 m 160 370 l 712 370 l 712 250 l 160 250 "},"≠":{"ha":808,"x_min":0,"x_max":0,"o":"m 220 250 l 125 250 l 125 370 l 291 370 l 392 542 l 125 542 l 125 661 l 464 661 l 638 958 l 738 958 l 564 661 l 678 661 l 678 542 l 492 542 l 391 370 l 678 370 l 678 250 l 319 250 l 173 0 l 73 0 "},">":{"ha":881,"x_min":0,"x_max":0,"o":"m 71 90 l 624 406 l 71 722 l 124 814 l 840 406 l 124 -2 "},"<":{"ha":881,"x_min":0,"x_max":0,"o":"m 41 406 l 757 814 l 810 722 l 257 406 l 810 90 l 757 -2 "},"≥":{"ha":918,"x_min":0,"x_max":0,"o":"m 94 215 l 646 531 l 94 847 l 146 939 l 862 531 l 146 123 m 827 -106 l 85 -106 l 85 0 l 827 0 "},"≤":{"ha":918,"x_min":0,"x_max":0,"o":"m 56 531 l 772 939 l 825 847 l 272 531 l 825 215 l 772 123 m 833 0 l 833 -106 l 91 -106 l 91 0 "},"±":{"ha":902,"x_min":0,"x_max":0,"o":"m 398 426 l 84 426 l 84 532 l 398 532 l 398 831 l 505 831 l 505 532 l 819 532 l 819 426 l 505 426 l 505 127 l 398 127 m 84 0 l 816 0 l 816 -106 l 84 -106 "},"≈":{"ha":838,"x_min":0,"x_max":0,"o":"m 538 479 b 297 639 381 479 393 639 b 227 515 252 639 227 591 l 120 515 b 297 734 120 646 190 734 b 538 574 458 734 449 574 b 612 713 582 574 612 631 l 718 713 b 538 479 718 574 647 479 m 538 155 b 297 316 381 155 393 316 b 227 192 252 316 227 268 l 120 192 b 297 411 120 323 190 411 b 538 250 458 411 449 250 b 612 389 582 250 612 308 l 718 389 b 538 155 718 251 647 155 "},"~":{"ha":837,"x_min":0,"x_max":0,"o":"m 538 234 b 297 395 381 234 393 395 b 227 271 252 395 227 347 l 120 271 b 297 490 120 402 190 490 b 538 329 458 490 449 329 b 612 468 582 329 612 387 l 718 468 b 538 234 718 330 647 234 "},"¬":{"ha":889,"x_min":0,"x_max":0,"o":"m 596 415 l 98 415 l 98 541 l 730 541 l 730 197 l 596 197 "},"^":{"ha":819,"x_min":0,"x_max":0,"o":"m 409 1008 l 770 293 l 621 293 l 409 743 l 198 293 l 50 293 "},"∞":{"ha":1310,"x_min":0,"x_max":0,"o":"m 370 241 b 104 498 206 241 104 349 b 370 754 104 646 206 754 b 654 593 471 754 576 694 b 939 754 734 696 840 754 b 1205 498 1103 754 1205 646 b 939 241 1205 349 1103 241 b 654 401 838 241 734 300 b 370 241 575 299 470 241 m 388 354 b 591 498 450 354 532 401 b 388 640 530 595 450 640 b 230 498 294 640 230 586 b 388 354 230 409 294 354 m 922 354 b 1080 498 1016 354 1080 409 b 922 640 1080 586 1016 640 b 716 498 857 640 775 589 b 922 354 777 404 857 354 "},"∫":{"ha":635,"x_min":0,"x_max":0,"o":"m 41 -196 b 253 -5 195 -196 253 -144 l 253 770 b 453 979 253 890 342 979 b 602 922 505 979 558 960 l 527 832 b 453 861 500 853 475 861 b 371 765 411 861 371 831 l 371 -9 b 41 -314 371 -210 244 -314 "},"Ω":{"ha":1133,"x_min":0,"x_max":0,"o":"m 1030 113 l 1030 0 l 646 0 l 646 122 b 892 489 796 149 892 292 b 814 714 892 577 862 664 b 566 825 751 783 654 825 b 317 714 477 825 381 781 b 239 489 269 664 239 577 b 486 122 239 295 336 152 l 486 0 l 101 0 l 101 117 l 323 117 b 117 494 198 204 117 352 b 233 799 117 606 162 724 b 566 943 317 887 446 943 b 899 798 685 943 814 886 b 1015 490 970 723 1015 604 b 820 113 1015 340 939 193 "},"∆":{"ha":892,"x_min":0,"x_max":0,"o":"m 446 1004 l 847 0 l 45 0 m 675 118 l 446 717 l 218 118 "},"∏":{"ha":912,"x_min":0,"x_max":0,"o":"m 171 840 l 110 840 l 110 958 l 802 958 l 802 840 l 742 840 l 742 0 l 624 0 l 624 840 l 289 840 l 289 0 l 171 0 "},"∑":{"ha":866,"x_min":0,"x_max":0,"o":"m 790 825 l 292 825 l 633 479 l 292 133 l 790 133 l 790 0 l 59 0 l 59 71 l 444 479 l 59 887 l 59 958 l 790 958 "},"√":{"ha":832,"x_min":0,"x_max":0,"o":"m 154 370 l 49 370 l 49 489 l 239 489 l 349 164 l 662 958 l 788 958 l 341 -140 "},"µ":{"ha":879,"x_min":0,"x_max":0,"o":"m 160 677 l 299 677 l 299 284 b 441 117 299 184 348 117 b 606 297 542 117 606 174 l 606 677 l 745 677 l 745 0 l 606 0 l 606 91 b 402 -13 556 19 476 -13 b 273 31 347 -13 304 3 l 273 -227 l 160 -227 "},"∂":{"ha":886,"x_min":0,"x_max":0,"o":"m 388 -8 b 80 302 195 -8 80 122 b 445 685 80 530 253 685 b 646 585 530 685 595 642 b 635 683 647 621 644 654 b 442 866 614 807 541 866 b 265 749 380 866 302 843 l 162 782 b 454 968 210 901 316 968 b 787 514 688 968 787 776 b 388 -8 787 216 645 -8 m 396 113 b 646 364 552 113 640 242 b 462 570 650 464 595 570 b 210 304 297 570 210 437 b 396 113 210 177 296 113 "},"%":{"ha":991,"x_min":0,"x_max":0,"o":"m 262 532 b 68 752 142 532 68 630 b 258 971 68 873 141 971 b 449 751 368 971 449 877 b 262 532 449 626 370 532 m 728 958 l 828 958 l 263 0 l 163 0 m 262 627 b 354 751 315 627 354 678 b 258 876 354 823 317 876 b 163 752 196 876 163 821 b 262 627 163 682 197 627 m 735 -13 b 542 208 616 -13 542 85 b 731 427 542 328 614 427 b 922 206 842 427 922 332 b 735 -13 922 81 843 -13 m 735 82 b 827 206 789 82 827 134 b 731 332 827 278 791 332 b 637 208 669 332 637 277 b 735 82 637 137 671 82 "},"‰":{"ha":1427,"x_min":0,"x_max":0,"o":"m 262 532 b 68 752 142 532 68 630 b 258 971 68 873 141 971 b 449 751 368 971 449 877 b 262 532 449 626 370 532 m 728 958 l 828 958 l 263 0 l 163 0 m 262 627 b 354 751 315 627 354 678 b 258 876 354 823 317 876 b 163 752 196 876 163 821 b 262 627 163 682 197 627 m 735 -13 b 542 208 616 -13 542 85 b 731 427 542 328 614 427 b 922 206 842 427 922 332 b 735 -13 922 81 843 -13 m 1171 -13 b 978 208 1051 -13 978 85 b 1166 427 978 328 1050 427 b 1358 206 1278 427 1358 332 b 1171 -13 1358 81 1279 -13 m 735 82 b 827 206 789 82 827 134 b 731 332 827 278 791 332 b 637 208 669 332 637 277 b 735 82 637 137 671 82 m 1171 82 b 1263 206 1224 82 1263 134 b 1166 332 1263 278 1226 332 b 1073 208 1105 332 1073 277 b 1171 82 1073 137 1107 82 "},"‱":{"ha":1862,"x_min":0,"x_max":0,"o":"m 262 532 b 68 752 142 532 68 630 b 258 971 68 873 141 971 b 449 751 368 971 449 877 b 262 532 449 626 370 532 m 728 958 l 828 958 l 263 0 l 163 0 m 262 627 b 354 751 315 627 354 678 b 258 876 354 823 317 876 b 163 752 196 876 163 821 b 262 627 163 682 197 627 m 735 -13 b 542 208 616 -13 542 85 b 731 427 542 328 614 427 b 922 206 842 427 922 332 b 735 -13 922 81 843 -13 m 1171 -13 b 978 208 1051 -13 978 85 b 1166 427 978 328 1050 427 b 1358 206 1278 427 1358 332 b 1171 -13 1358 81 1279 -13 m 1607 -13 b 1413 208 1487 -13 1413 85 b 1602 427 1413 328 1486 427 b 1794 206 1713 427 1794 332 b 1607 -13 1794 81 1714 -13 m 735 82 b 827 206 789 82 827 134 b 731 332 827 278 791 332 b 637 208 669 332 637 277 b 735 82 637 137 671 82 m 1171 82 b 1263 206 1224 82 1263 134 b 1166 332 1263 278 1226 332 b 1073 208 1105 332 1073 277 b 1171 82 1073 137 1107 82 m 1607 82 b 1699 206 1660 82 1699 134 b 1602 332 1699 278 1662 332 b 1508 208 1541 332 1508 277 b 1607 82 1508 137 1542 82 "},"→":{"ha":1563,"x_min":0,"x_max":0,"o":"m 760 128 l 1208 380 l 60 378 l 60 485 l 1207 486 l 760 736 l 807 829 l 1522 433 l 807 35 "},"←":{"ha":1563,"x_min":0,"x_max":0,"o":"m 41 433 l 756 829 l 804 736 l 356 486 l 1503 485 l 1503 378 l 355 380 l 804 128 l 756 35 "},"◊":{"ha":814,"x_min":0,"x_max":0,"o":"m 56 479 l 313 958 l 503 958 l 760 479 l 503 0 l 313 0 m 416 74 l 621 479 l 416 884 l 398 884 l 194 479 l 398 74 "},"":{"ha":1183,"x_min":0,"x_max":0,"o":"m 591 -41 b 66 484 301 -41 66 193 b 591 1008 66 774 301 1008 b 1117 484 882 1008 1117 774 b 591 -41 1117 193 882 -41 m 591 7 b 1068 484 856 7 1068 220 b 591 960 1068 747 856 960 b 115 484 328 960 115 747 b 591 7 115 220 328 7 m 318 278 b 294 301 306 278 294 288 l 294 665 b 318 690 294 679 306 690 b 343 665 332 690 343 679 l 343 301 b 318 278 343 288 332 278 m 591 278 b 568 301 578 278 568 288 l 568 665 b 591 690 568 679 578 690 b 615 665 606 690 615 679 l 615 301 b 591 278 615 288 606 278 m 864 278 b 848 285 859 278 852 279 l 665 467 b 660 484 661 472 660 478 b 665 500 660 490 661 496 l 849 682 b 864 690 852 688 859 690 b 889 665 876 690 889 677 b 882 648 889 660 888 654 l 717 484 l 882 318 b 889 301 888 313 889 307 b 864 278 889 289 876 278 m 410 460 b 386 484 396 460 386 469 b 410 507 386 497 396 507 l 500 507 b 525 484 514 507 525 497 b 500 460 525 469 514 460 l 410 460 "},"@":{"ha":1389,"x_min":0,"x_max":0,"o":"m 689 -237 b 81 352 356 -237 81 -12 b 701 972 81 700 331 972 b 1310 372 1074 972 1310 696 b 996 -50 1310 162 1211 -50 b 831 64 907 -50 850 -8 b 820 136 824 85 821 109 b 605 32 764 71 687 32 b 382 296 455 32 382 153 b 713 717 382 477 501 717 b 893 605 805 717 866 672 l 909 683 l 1023 683 b 921 161 995 532 924 293 b 993 65 918 96 934 65 b 1200 374 1143 65 1200 229 b 702 865 1200 637 1010 865 b 191 355 393 865 191 640 b 690 -124 191 52 419 -124 b 860 -96 754 -124 806 -114 l 899 -201 b 689 -237 833 -225 767 -237 m 614 144 b 854 460 771 144 854 323 b 730 605 854 551 817 605 b 489 291 572 605 489 427 b 614 144 489 198 528 144 "},"&":{"ha":945,"x_min":0,"x_max":0,"o":"m 792 -49 l 665 98 b 374 -14 588 28 488 -14 b 67 222 200 -14 67 71 b 294 515 67 369 178 450 b 176 746 254 558 176 643 b 435 968 176 884 304 968 b 682 747 571 968 682 872 b 494 490 682 627 595 552 l 658 304 b 693 470 680 355 692 412 l 829 456 b 750 199 824 361 796 273 l 891 39 m 311 744 b 404 576 311 685 372 612 b 553 745 487 623 553 671 b 436 859 553 806 509 859 b 311 744 368 859 311 817 m 370 105 b 583 193 456 105 529 138 l 382 424 b 203 220 286 367 203 309 b 370 105 203 145 270 105 "},"¶":{"ha":875,"x_min":0,"x_max":0,"o":"m 366 422 b 58 690 207 422 58 521 b 366 958 58 860 207 958 l 464 958 l 464 -167 l 366 -167 m 614 958 l 713 958 l 713 -167 l 614 -167 "},"§":{"ha":772,"x_min":0,"x_max":0,"o":"m 390 -12 b 95 184 256 -12 129 46 l 229 224 b 399 102 254 137 307 102 b 550 192 486 102 550 133 b 125 503 550 345 125 252 b 184 642 125 562 149 605 b 127 768 143 677 127 720 b 386 971 127 899 252 971 b 641 846 507 971 600 916 l 529 781 b 381 862 506 831 456 862 b 243 765 292 862 243 814 b 668 456 243 622 668 715 b 613 319 668 407 653 360 b 668 192 650 286 668 243 b 390 -12 668 50 528 -12 m 493 370 b 550 453 530 386 550 416 b 300 598 550 547 418 561 b 243 508 260 577 243 538 b 493 370 243 418 380 406 "},"©":{"ha":1152,"x_min":0,"x_max":0,"o":"m 576 -18 b 66 479 294 -18 66 204 b 576 976 66 754 294 976 b 1086 479 858 976 1086 754 b 576 -18 1086 204 858 -18 m 576 72 b 998 479 809 72 998 254 b 576 886 998 704 809 886 b 155 479 343 886 155 705 b 576 72 155 254 343 72 m 591 180 b 319 478 411 180 319 321 b 589 778 319 629 407 778 b 833 612 701 778 789 723 l 723 570 b 589 673 703 631 653 673 b 436 478 482 673 436 576 b 589 285 436 378 481 285 b 722 387 654 285 703 325 l 826 346 b 591 180 789 241 703 180 "},"®":{"ha":1152,"x_min":0,"x_max":0,"o":"m 576 -18 b 66 479 294 -18 66 204 b 576 976 66 754 294 976 b 1086 479 858 976 1086 754 b 576 -18 1086 204 858 -18 m 576 72 b 998 479 809 72 998 254 b 576 886 998 704 809 886 b 155 479 343 886 155 705 b 576 72 155 254 343 72 m 410 767 l 588 767 b 786 600 706 767 786 700 b 674 450 786 530 743 474 l 832 191 l 725 191 l 583 441 b 551 440 572 441 562 440 l 503 440 l 503 191 l 410 191 m 596 517 b 694 598 659 519 694 549 b 589 684 694 652 654 684 l 503 684 l 503 517 "},"™":{"ha":864,"x_min":0,"x_max":0,"o":"m 145 878 l 44 878 l 44 958 l 334 958 l 334 878 l 233 878 l 233 595 l 145 595 m 408 958 l 552 958 l 615 730 l 678 958 l 819 958 l 819 595 l 731 595 l 731 867 l 644 602 l 588 602 l 496 868 l 496 595 l 408 595 "},"°":{"ha":616,"x_min":0,"x_max":0,"o":"m 308 576 b 111 774 200 576 111 665 b 308 971 111 883 200 971 b 505 774 416 971 505 883 b 308 576 505 665 416 576 m 308 671 b 412 774 366 671 412 717 b 308 876 412 831 366 876 b 205 774 251 876 205 831 b 308 671 205 717 251 671 "},"|":{"ha":427,"x_min":0,"x_max":0,"o":"m 161 1040 l 266 1040 l 266 -347 l 161 -347 "},"¦":{"ha":438,"x_min":0,"x_max":0,"o":"m 161 1000 l 277 1000 l 277 496 l 161 496 m 161 285 l 277 285 l 277 -208 l 161 -208 "},"†":{"ha":542,"x_min":0,"x_max":0,"o":"m 208 566 l 51 566 l 51 694 l 208 694 l 208 958 l 335 958 l 335 694 l 491 694 l 491 566 l 335 566 l 335 -139 l 208 -139 "},"‡":{"ha":611,"x_min":0,"x_max":0,"o":"m 242 125 l 85 125 l 85 253 l 242 253 l 242 566 l 85 566 l 85 694 l 242 694 l 242 958 l 369 958 l 369 694 l 526 694 l 526 566 l 369 566 l 369 253 l 526 253 l 526 125 l 369 125 l 369 -139 l 242 -139 "},"№":{"ha":1610,"x_min":0,"x_max":0,"o":"m 707 958 l 847 958 l 847 0 l 700 0 l 273 719 l 273 0 l 133 0 l 133 958 l 279 958 l 707 243 m 1261 221 b 979 514 1091 221 979 354 b 1261 804 979 673 1091 804 b 1544 514 1429 804 1544 673 b 1261 221 1544 354 1429 221 m 1261 704 b 1099 514 1150 704 1099 616 b 1261 321 1099 410 1150 321 b 1423 514 1371 321 1423 411 b 1261 704 1423 616 1371 704 m 983 106 l 1527 106 l 1527 0 l 983 0 "},"˵":{"ha":752,"x_min":0,"x_max":0,"o":"m 75 677 l 224 677 l 376 460 l 273 460 m 364 677 l 514 677 l 667 460 l 564 460 "},"˶":{"ha":752,"x_min":0,"x_max":0,"o":"m 85 460 l 238 677 l 388 677 l 189 460 m 376 460 l 528 677 l 677 677 l 479 460 "},"ː":{"ha":385,"x_min":0,"x_max":0,"o":"m 27 677 l 355 683 l 195 370 m 190 307 l 357 0 l 30 -5 "},"ˑ":{"ha":388,"x_min":0,"x_max":0,"o":"m 29 459 l 357 465 l 197 151 "},"̈":{"ha":0,"x_min":0,"x_max":0,"o":"m -482 958 l -364 958 l -364 810 l -482 810 m -221 958 l -103 958 l -103 810 l -221 810 "},"̇":{"ha":0,"x_min":0,"x_max":0,"o":"m -250 958 l -103 958 l -103 810 l -250 810 "},"̀":{"ha":0,"x_min":0,"x_max":0,"o":"m -328 958 l -178 958 l -35 763 l -142 763 "},"́":{"ha":0,"x_min":0,"x_max":0,"o":"m -174 958 l -24 958 l -221 763 l -325 763 "},"̋":{"ha":0,"x_min":0,"x_max":0,"o":"m -425 958 l -298 958 l -472 740 l -576 740 m -172 958 l -22 958 l -219 740 l -322 740 "},"̂":{"ha":0,"x_min":0,"x_max":0,"o":"m -229 979 l -17 748 l -127 748 l -229 859 l -329 748 l -439 748 "},"̌":{"ha":0,"x_min":0,"x_max":0,"o":"m -441 958 l -331 958 l -230 853 l -129 958 l -18 958 l -230 739 "},"̆":{"ha":0,"x_min":0,"x_max":0,"o":"m -280 776 b -492 958 -425 776 -492 841 l -392 958 b -280 859 -392 891 -345 859 b -168 958 -212 859 -168 893 l -68 958 b -280 776 -68 836 -140 776 "},"̊":{"ha":0,"x_min":0,"x_max":0,"o":"m -216 731 b -363 880 -298 731 -363 799 b -216 1027 -363 961 -298 1027 b -67 880 -136 1027 -67 962 b -216 731 -67 797 -133 731 m -216 807 b -144 880 -174 807 -144 838 b -216 951 -144 920 -172 951 b -287 880 -258 951 -287 920 b -216 807 -287 838 -256 807 "},"̃":{"ha":0,"x_min":0,"x_max":0,"o":"m -211 771 b -391 876 -320 771 -333 876 b -444 778 -425 876 -444 840 l -526 778 b -387 963 -526 897 -472 963 b -210 859 -288 963 -267 859 b -161 958 -182 859 -161 895 l -76 958 b -211 771 -76 840 -128 771 "},"̄":{"ha":0,"x_min":0,"x_max":0,"o":"m -478 878 l -101 878 l -101 794 l -478 794 "},"̏":{"ha":0,"x_min":0,"x_max":0,"o":"m -389 740 l -587 958 l -437 958 l -286 740 m -136 740 l -311 958 l -184 958 l -33 740 "},"̒":{"ha":0,"x_min":0,"x_max":0,"o":"m -160 760 l -307 760 l -141 970 l -58 970 "},"̛":{"ha":0,"x_min":0,"x_max":0,"o":"m -278 772 b -180 890 -200 772 -180 833 l -180 958 l -73 958 l -73 900 b -278 680 -73 775 -133 680 "},"̦":{"ha":0,"x_min":0,"x_max":0,"o":"m -176 -74 l -28 -74 l -195 -309 l -277 -309 "},"̧":{"ha":0,"x_min":0,"x_max":0,"o":"m -208 -353 b -340 -265 -265 -353 -319 -317 l -262 -232 b -205 -272 -254 -255 -231 -272 b -141 -211 -166 -272 -141 -248 b -258 -132 -141 -165 -186 -134 b -309 -131 -272 -132 -288 -131 l -229 -1 l -145 -1 l -197 -75 b -158 -83 -183 -77 -170 -79 b -58 -206 -92 -101 -58 -144 b -208 -353 -58 -290 -121 -353 "},"̨":{"ha":0,"x_min":0,"x_max":0,"o":"m -185 -307 b -334 -172 -271 -307 -334 -253 b -207 1 -334 -64 -227 -3 l -97 0 b -249 -153 -131 -9 -249 -66 b -189 -220 -249 -204 -222 -220 b -109 -176 -155 -220 -130 -205 l -37 -224 b -185 -307 -70 -274 -117 -307 "},"̷":{"ha":0,"x_min":0,"x_max":0,"o":"m -635 331 l -227 792 l -227 637 l -635 175 "},"´":{"ha":356,"x_min":0,"x_max":0,"o":"m 182 958 l 332 958 l 135 763 l 31 763 "},"˘":{"ha":560,"x_min":0,"x_max":0,"o":"m 281 776 b 69 958 136 776 69 841 l 169 958 b 281 859 169 891 216 859 b 393 958 349 859 393 893 l 492 958 b 281 776 492 836 420 776 "},"ˇ":{"ha":460,"x_min":0,"x_max":0,"o":"m 20 958 l 130 958 l 231 853 l 332 958 l 443 958 l 231 739 "},"¸":{"ha":389,"x_min":0,"x_max":0,"o":"m 180 -353 b 48 -265 123 -353 70 -317 l 127 -232 b 184 -272 135 -255 158 -272 b 248 -211 222 -272 248 -248 b 131 -132 248 -165 202 -134 b 79 -131 117 -132 100 -131 l 160 -1 l 243 -1 l 191 -75 b 231 -83 205 -77 219 -79 b 331 -206 296 -101 331 -144 b 180 -353 331 -290 268 -353 "},"ˆ":{"ha":456,"x_min":0,"x_max":0,"o":"m 228 979 l 439 748 l 330 748 l 228 859 l 127 748 l 17 748 "},"¨":{"ha":562,"x_min":0,"x_max":0,"o":"m 103 958 l 221 958 l 221 810 l 103 810 m 364 958 l 482 958 l 482 810 l 364 810 "},"˙":{"ha":353,"x_min":0,"x_max":0,"o":"m 110 958 l 257 958 l 257 810 l 110 810 "},"`":{"ha":354,"x_min":0,"x_max":0,"o":"m 24 958 l 174 958 l 317 763 l 210 763 "},"˝":{"ha":585,"x_min":0,"x_max":0,"o":"m 185 958 l 312 958 l 138 740 l 34 740 m 438 958 l 588 958 l 391 740 l 288 740 "},"¯":{"ha":579,"x_min":0,"x_max":0,"o":"m 102 878 l 479 878 l 479 794 l 102 794 "},"˛":{"ha":399,"x_min":0,"x_max":0,"o":"m 214 -307 b 65 -172 127 -307 65 -253 b 192 1 65 -64 172 -3 l 302 0 b 150 -153 268 -9 150 -66 b 210 -220 150 -204 176 -220 b 290 -176 244 -220 269 -205 l 361 -224 b 214 -307 329 -274 282 -307 "},"˚":{"ha":431,"x_min":0,"x_max":0,"o":"m 216 731 b 68 880 133 731 68 799 b 216 1027 68 961 134 1027 b 364 880 296 1027 364 962 b 216 731 364 797 298 731 m 216 807 b 288 880 258 807 288 838 b 216 951 288 920 260 951 b 144 880 174 951 144 920 b 216 807 144 838 176 807 "},"˜":{"ha":600,"x_min":0,"x_max":0,"o":"m 409 771 b 229 876 300 771 287 876 b 176 778 195 876 176 840 l 94 778 b 233 963 94 897 148 963 b 410 859 332 963 353 859 b 459 958 438 859 459 895 l 544 958 b 409 771 544 840 492 771 "},"΄":{"ha":300,"x_min":0,"x_max":0,"o":"m 121 958 l 237 958 l 154 763 l 85 763 "},"΅":{"ha":498,"x_min":0,"x_max":0,"o":"m 227 1239 l 342 1239 l 259 1044 l 191 1044 m 37 958 l 155 958 l 155 810 l 37 810 m 298 958 l 416 958 l 416 810 l 298 810 "},"҃":{"ha":0,"x_min":0,"x_max":0,"o":"m -660 1289 l -229 1289 l -229 1379 l -85 1379 l -85 1156 l -519 1156 l -519 1065 l -660 1065 "}}}
